<svg xmlns="http://www.w3.org/2000/svg" xmlns:xlink="http://www.w3.org/1999/xlink" viewBox="0 0 88.17 19.07"><defs><style>.cls-1,.cls-5{font-size:12px;font-family:CocosignumCorsivoItalico-Bold, Cocosignum Corsivo Italico;font-weight:700;}.cls-1{fill:#40b4e8;}.cls-2{letter-spacing:-0.06em;}.cls-3{letter-spacing:0em;}.cls-4,.cls-5{fill:none;stroke-linecap:round;stroke-linejoin:round;}.cls-4{stroke-width:3px;stroke:url(#Orange_Yellow);}.cls-5{stroke:#fff;stroke-width:2px;}.cls-6{fill:url(#linear-gradient);}</style><linearGradient id="Orange_Yellow" x1="2" y1="8.51" x2="86.16" y2="8.51" gradientUnits="userSpaceOnUse"><stop offset="0" stop-color="#ffef26"/><stop offset="0.02" stop-color="#ffea21"/><stop offset="0.1" stop-color="#fed70f"/><stop offset="0.19" stop-color="#fdcc04"/><stop offset="0.28" stop-color="#fdc800"/><stop offset="0.67" stop-color="#f18f34"/><stop offset="0.89" stop-color="#e95f32"/><stop offset="1" stop-color="#e3312d"/></linearGradient><linearGradient id="linear-gradient" x1="44.16" y1="-3.97" x2="43.99" y2="16.28" xlink:href="#Orange_Yellow"/></defs><title>Asset 7vipe61</title><g id="Layer_2" data-name="Layer 2"><g id="Layer_1-2" data-name="Layer 1"><text class="cls-1" transform="translate(1.02 11.46)">Electronic<tspan class="cls-2" x="57.92" y="0">V</tspan><tspan class="cls-3" x="66.04" y="0">ipe</tspan></text><path class="cls-4" d="M2,2.8c0-.17.08-.25.23-.25H8.16c.16,0,.24.08.24.26v1a.24.24,0,0,1-.25.25H3.68v3H7.2c.15,0,.23.07.23.22v1a.21.21,0,0,1-.22.22H3.68v1.4H8.3a.21.21,0,0,1,.23.24v.92c0,.26,0,.39-.24.39H2.23A.2.2,0,0,1,2,11.24Z"/><path class="cls-4" d="M9.53,2.84a.26.26,0,0,1,.28-.28h1a.29.29,0,0,1,.29.28V9.49L13,7.84a.3.3,0,0,1,.2-.09.28.28,0,0,1,.2.1l.57.64a.27.27,0,0,1,.07.2A.26.26,0,0,1,14,8.9l-2.9,2.47c-.08.1-.38.09-.45.09H9.81a.26.26,0,0,1-.28-.29Z"/><path class="cls-4" d="M16.61,10a4.69,4.69,0,0,0,.81-.54l1.9-1.63a.28.28,0,0,1,.18-.06.22.22,0,0,1,.17.09l.64.73a.24.24,0,0,1,.06.14.26.26,0,0,1-.1.19l-2.05,1.76a3.94,3.94,0,0,1-2.44.9,3.18,3.18,0,0,1-2.18-.85,2.94,2.94,0,0,1-.95-2.21,3.07,3.07,0,0,1,3.11-3.06A3,3,0,0,1,17,5.72a2.63,2.63,0,0,1,1,.81,1.31,1.31,0,0,1,.23.49.6.6,0,0,1,0,.2.34.34,0,0,1-.15.31L14.88,10a1.34,1.34,0,0,0,.86.24A1.93,1.93,0,0,0,16.61,10Zm-.06-2.91a1.29,1.29,0,0,0-.79-.26,1.6,1.6,0,0,0-1.09.45,1.47,1.47,0,0,0-.5,1.08,1.62,1.62,0,0,0,0,.49Z"/><path class="cls-4" d="M22.87,9.88a3.25,3.25,0,0,0,.72-.46l1.9-1.59a.3.3,0,0,1,.4,0l.55.63a.34.34,0,0,1,.07.19.28.28,0,0,1-.11.22l-2,1.71a3.65,3.65,0,0,1-2.35,1,3.14,3.14,0,0,1-2.2-.86,2.92,2.92,0,0,1-.93-2.18,3.08,3.08,0,0,1,.9-2.18A3.12,3.12,0,0,1,22,5.45,3.19,3.19,0,0,1,23.79,6,.54.54,0,0,1,24,6.2a.21.21,0,0,1,0,.12.41.41,0,0,1,0,.12l-.49.84a.21.21,0,0,1-.19.12.29.29,0,0,1-.2-.07A1.79,1.79,0,0,0,22,7a1.45,1.45,0,0,0-1.08.45,1.61,1.61,0,0,0-.42,1.1A1.55,1.55,0,0,0,21,9.64a1.48,1.48,0,0,0,1.06.43A2.23,2.23,0,0,0,22.87,9.88Z"/><path class="cls-4" d="M25.39,4.82V3.21a.28.28,0,0,1,.26-.28l1-.16c.18,0,.29.12.29.3V4.82h.91a.27.27,0,0,1,.31.31v.66a.29.29,0,0,1-.31.33H27V9.47l1.92-1.64a.37.37,0,0,1,.2-.08.34.34,0,0,1,.21.1l.56.64a.28.28,0,0,1,.08.2.26.26,0,0,1-.09.21L27,11.36l-.09.05a.42.42,0,0,1-.2.05h-1a.26.26,0,0,1-.3-.29v-5h-.55c-.22,0-.32-.09-.32-.31V5.12c0-.22.1-.3.32-.3Z"/><path class="cls-4" d="M31.84,7.12a1.93,1.93,0,0,0-1,.43,1.22,1.22,0,0,0-.45,1v2.64c0,.21-.12.31-.34.31h-.92a.28.28,0,0,1-.32-.31V5.87a.29.29,0,0,1,.32-.3h.69c.19,0,.29.12.31.31l.06.43a2.91,2.91,0,0,1,2-.74H33a.28.28,0,0,1,.28.27V7.69l1.67-1a.44.44,0,0,1,.2-.07.26.26,0,0,1,.23.15l.36.66a.32.32,0,0,1,0,.16.23.23,0,0,1-.11.22L33.18,9.24a.53.53,0,0,1-.33.1h-.74a.24.24,0,0,1-.27-.27Z"/><path class="cls-4" d="M35.3,6.35a3.1,3.1,0,0,1,5.26,1.72L42.41,6.6a.48.48,0,0,1,.25-.11.16.16,0,0,1,.15.07l.57.78a.24.24,0,0,1,0,.15.28.28,0,0,1-.11.21l-3.14,2.38a3.48,3.48,0,0,1-1,1.08,3,3,0,0,1-1.63.44,3.09,3.09,0,0,1-2.2-.9,3,3,0,0,1-.91-2.17A3.09,3.09,0,0,1,35.3,6.35Zm1.11,3.31a1.54,1.54,0,0,0,1.1.46,1.51,1.51,0,0,0,1.09-.46,1.66,1.66,0,0,0,0-2.25,1.53,1.53,0,0,0-2.19,0A1.7,1.7,0,0,0,36,8.53,1.67,1.67,0,0,0,36.41,9.66Z"/><path class="cls-4" d="M46.64,7.91l-3,3.43a.33.33,0,0,1-.27.12h-1a.26.26,0,0,1-.29-.29V5.85a.27.27,0,0,1,.28-.28h1a.28.28,0,0,1,.3.28V9.12l2.92-3.28s.16-.27.39-.27h1a.3.3,0,0,1,.3.28V9.48l1.84-1.59a.41.41,0,0,1,.27-.12.29.29,0,0,1,.22.12l.5.55a.4.4,0,0,1,.12.27.27.27,0,0,1-.11.23l-2.74,2.31a.57.57,0,0,1-.39.21h-1a.26.26,0,0,1-.28-.29Z"/><path class="cls-4" d="M50.17,3.16a.93.93,0,0,1,.65-.27.93.93,0,0,1,.66,1.57.9.9,0,0,1-.66.27.92.92,0,0,1-.92-.92A.88.88,0,0,1,50.17,3.16Zm-.12,2.69a.27.27,0,0,1,.28-.28h1a.3.3,0,0,1,.3.28V9.48l1.91-1.64a.36.36,0,0,1,.2-.09.25.25,0,0,1,.17.08l.08.09.24.25a3.1,3.1,0,0,1,.3.36.41.41,0,0,1,.05.17.26.26,0,0,1-.09.21l-2.76,2.34c-.17.15-.25.21-.39.21h-1a.26.26,0,0,1-.28-.29Z"/><path class="cls-4" d="M57.11,9.88a3,3,0,0,0,.72-.46l1.9-1.59a.3.3,0,0,1,.4,0l.55.63a.34.34,0,0,1,.07.19.3.3,0,0,1-.1.22l-2,1.71a3.7,3.7,0,0,1-2.36,1,3.14,3.14,0,0,1-2.2-.86,2.92,2.92,0,0,1-.93-2.18,3.08,3.08,0,0,1,.9-2.18,3.12,3.12,0,0,1,2.18-.9A3.24,3.24,0,0,1,58,6a.5.5,0,0,1,.18.17.16.16,0,0,1,0,.12.24.24,0,0,1,0,.12l-.49.84a.21.21,0,0,1-.19.12.29.29,0,0,1-.2-.07A1.79,1.79,0,0,0,56.26,7a1.45,1.45,0,0,0-1.08.45,1.61,1.61,0,0,0-.42,1.1,1.55,1.55,0,0,0,.43,1.11,1.49,1.49,0,0,0,1.07.43A2.22,2.22,0,0,0,57.11,9.88Z"/><path class="cls-4" d="M59.17,2.83a.79.79,0,0,1,0-.13c0-.1.08-.15.23-.15h1.29a.28.28,0,0,1,.22.07.91.91,0,0,1,.12.26l2.3,6.17,2.34-6.3a.3.3,0,0,1,.3-.2H67.2c.14,0,.24.06.24.17a.29.29,0,0,1,0,.09l-3.3,8.28a.47.47,0,0,1-.19.29.75.75,0,0,1-.4.08h-.7c-.15,0-.21-.05-.25-.14Z"/><path class="cls-4" d="M67.86,3.16a.93.93,0,0,1,.65-.27.93.93,0,0,1,.66,1.57.9.9,0,0,1-.66.27.92.92,0,0,1-.92-.92A.88.88,0,0,1,67.86,3.16Zm-.12,2.69A.27.27,0,0,1,68,5.57h1a.3.3,0,0,1,.3.28V9.48l1.92-1.64a.33.33,0,0,1,.19-.09.25.25,0,0,1,.18.08l.08.09.24.25a3.1,3.1,0,0,1,.3.36.41.41,0,0,1,0,.17.26.26,0,0,1-.09.21l-2.76,2.34c-.17.15-.25.21-.39.21H68a.26.26,0,0,1-.28-.29Z"/><path class="cls-4" d="M72.23,5.57a.25.25,0,0,1,.26.18c0,.06,0,.12,0,.18s0,.12,0,.22v0a2.3,2.3,0,0,1,1.78-.73,2.87,2.87,0,0,1,2,.75,3.21,3.21,0,0,1,1,1.87L79.11,6.6a.48.48,0,0,1,.25-.11.16.16,0,0,1,.15.07l.57.78a.25.25,0,0,1,0,.15A.29.29,0,0,1,80,7.7l-3.14,2.38a3.45,3.45,0,0,1-1.07,1.05,2.65,2.65,0,0,1-1.42.4,2.37,2.37,0,0,1-1.65-.59v3.24a.27.27,0,0,1-.29.29h-1a.29.29,0,0,1-.3-.29V5.85a.24.24,0,0,1,.26-.28Zm.86,4.07a1.56,1.56,0,0,0,1.12.48,1.51,1.51,0,0,0,1.09-.46,1.63,1.63,0,0,0,.44-1.13,1.69,1.69,0,0,0-.44-1.16,1.45,1.45,0,0,0-1.09-.51,1.57,1.57,0,0,0-1.12.5,1.72,1.72,0,0,0-.47,1.15A1.59,1.59,0,0,0,73.09,9.64Z"/><path class="cls-4" d="M82.4,10a4.71,4.71,0,0,0,.82-.54l1.89-1.63a.32.32,0,0,1,.18-.06.24.24,0,0,1,.18.09l.63.73a.24.24,0,0,1,.06.14.23.23,0,0,1-.1.19l-2,1.76a4,4,0,0,1-2.44.9,3.23,3.23,0,0,1-2.19-.85,3,3,0,0,1-.94-2.21,3.06,3.06,0,0,1,3.1-3.06,3,3,0,0,1,1.21.28,2.66,2.66,0,0,1,1,.81A1.49,1.49,0,0,1,84,7a.62.62,0,0,1,0,.2.33.33,0,0,1-.14.31L80.67,10a1.37,1.37,0,0,0,.87.24A1.93,1.93,0,0,0,82.4,10Zm-.06-2.91a1.27,1.27,0,0,0-.79-.26,1.64,1.64,0,0,0-1.09.45A1.47,1.47,0,0,0,80,8.34a1.31,1.31,0,0,0,.05.49Z"/><text class="cls-5" transform="translate(1.02 11.46)">Electronic<tspan class="cls-2" x="57.92" y="0">V</tspan><tspan class="cls-3" x="66.04" y="0">ipe</tspan></text><path class="cls-6" d="M2,2.8c0-.17.08-.25.23-.25H8.16c.16,0,.24.08.24.26v1a.24.24,0,0,1-.25.25H3.68v3H7.2c.15,0,.23.07.23.22v1a.21.21,0,0,1-.22.22H3.68v1.4H8.3a.21.21,0,0,1,.23.24v.92c0,.26,0,.39-.24.39H2.23A.2.2,0,0,1,2,11.24Z"/><path class="cls-6" d="M9.53,2.84a.26.26,0,0,1,.28-.28h1a.29.29,0,0,1,.29.28V9.49L13,7.84a.3.3,0,0,1,.2-.09.28.28,0,0,1,.2.1l.57.64a.27.27,0,0,1,.07.2A.26.26,0,0,1,14,8.9l-2.9,2.47c-.08.1-.38.09-.45.09H9.81a.26.26,0,0,1-.28-.29Z"/><path class="cls-6" d="M16.61,10a4.69,4.69,0,0,0,.81-.54l1.9-1.63a.28.28,0,0,1,.18-.06.22.22,0,0,1,.17.09l.64.73a.24.24,0,0,1,.06.14.26.26,0,0,1-.1.19l-2.05,1.76a3.94,3.94,0,0,1-2.44.9,3.18,3.18,0,0,1-2.18-.85,2.94,2.94,0,0,1-.95-2.21,3.07,3.07,0,0,1,3.11-3.06A3,3,0,0,1,17,5.72a2.63,2.63,0,0,1,1,.81,1.31,1.31,0,0,1,.23.49.6.6,0,0,1,0,.2.34.34,0,0,1-.15.31L14.88,10a1.34,1.34,0,0,0,.86.24A1.93,1.93,0,0,0,16.61,10Zm-.06-2.91a1.29,1.29,0,0,0-.79-.26,1.6,1.6,0,0,0-1.09.45,1.47,1.47,0,0,0-.5,1.08,1.62,1.62,0,0,0,0,.49Z"/><path class="cls-6" d="M22.87,9.88a3.25,3.25,0,0,0,.72-.46l1.9-1.59a.3.3,0,0,1,.4,0l.55.63a.34.34,0,0,1,.07.19.28.28,0,0,1-.11.22l-2,1.71a3.65,3.65,0,0,1-2.35,1,3.14,3.14,0,0,1-2.2-.86,2.92,2.92,0,0,1-.93-2.18,3.08,3.08,0,0,1,.9-2.18A3.12,3.12,0,0,1,22,5.45,3.19,3.19,0,0,1,23.79,6,.54.54,0,0,1,24,6.2a.21.21,0,0,1,0,.12.41.41,0,0,1,0,.12l-.49.84a.21.21,0,0,1-.19.12.29.29,0,0,1-.2-.07A1.79,1.79,0,0,0,22,7a1.45,1.45,0,0,0-1.08.45,1.61,1.61,0,0,0-.42,1.1A1.55,1.55,0,0,0,21,9.64a1.48,1.48,0,0,0,1.06.43A2.23,2.23,0,0,0,22.87,9.88Z"/><path class="cls-6" d="M25.39,4.82V3.21a.28.28,0,0,1,.26-.28l1-.16c.18,0,.29.12.29.3V4.82h.91a.27.27,0,0,1,.31.31v.66a.29.29,0,0,1-.31.33H27V9.47l1.92-1.64a.37.37,0,0,1,.2-.08.34.34,0,0,1,.21.1l.56.64a.28.28,0,0,1,.08.2.26.26,0,0,1-.09.21L27,11.36l-.09.05a.42.42,0,0,1-.2.05h-1a.26.26,0,0,1-.3-.29v-5h-.55c-.22,0-.32-.09-.32-.31V5.12c0-.22.1-.3.32-.3Z"/><path class="cls-6" d="M31.84,7.12a1.93,1.93,0,0,0-1,.43,1.22,1.22,0,0,0-.45,1v2.64c0,.21-.12.31-.34.31h-.92a.28.28,0,0,1-.32-.31V5.87a.29.29,0,0,1,.32-.3h.69c.19,0,.29.12.31.31l.06.43a2.91,2.91,0,0,1,2-.74H33a.28.28,0,0,1,.28.27V7.69l1.67-1a.44.44,0,0,1,.2-.07.26.26,0,0,1,.23.15l.36.66a.32.32,0,0,1,0,.16.23.23,0,0,1-.11.22L33.18,9.24a.53.53,0,0,1-.33.1h-.74a.24.24,0,0,1-.27-.27Z"/><path class="cls-6" d="M35.3,6.35a3.1,3.1,0,0,1,5.26,1.72L42.41,6.6a.48.48,0,0,1,.25-.11.16.16,0,0,1,.15.07l.57.78a.24.24,0,0,1,0,.15.28.28,0,0,1-.11.21l-3.14,2.38a3.48,3.48,0,0,1-1,1.08,3,3,0,0,1-1.63.44,3.09,3.09,0,0,1-2.2-.9,3,3,0,0,1-.91-2.17A3.09,3.09,0,0,1,35.3,6.35Zm1.11,3.31a1.54,1.54,0,0,0,1.1.46,1.51,1.51,0,0,0,1.09-.46,1.66,1.66,0,0,0,0-2.25,1.53,1.53,0,0,0-2.19,0A1.7,1.7,0,0,0,36,8.53,1.67,1.67,0,0,0,36.41,9.66Z"/><path class="cls-6" d="M46.64,7.91l-3,3.43a.33.33,0,0,1-.27.12h-1a.26.26,0,0,1-.29-.29V5.85a.27.27,0,0,1,.28-.28h1a.28.28,0,0,1,.3.28V9.12l2.92-3.28s.16-.27.39-.27h1a.3.3,0,0,1,.3.28V9.48l1.84-1.59a.41.41,0,0,1,.27-.12.29.29,0,0,1,.22.12l.5.55a.4.4,0,0,1,.12.27.27.27,0,0,1-.11.23l-2.74,2.31a.57.57,0,0,1-.39.21h-1a.26.26,0,0,1-.28-.29Z"/><path class="cls-6" d="M50.17,3.16a.93.93,0,0,1,.65-.27.93.93,0,0,1,.66,1.57.9.9,0,0,1-.66.27.92.92,0,0,1-.92-.92A.88.88,0,0,1,50.17,3.16Zm-.12,2.69a.27.27,0,0,1,.28-.28h1a.3.3,0,0,1,.3.28V9.48l1.91-1.64a.36.36,0,0,1,.2-.09.25.25,0,0,1,.17.08l.08.09.24.25a3.1,3.1,0,0,1,.3.36.41.41,0,0,1,.05.17.26.26,0,0,1-.09.21l-2.76,2.34c-.17.15-.25.21-.39.21h-1a.26.26,0,0,1-.28-.29Z"/><path class="cls-6" d="M57.11,9.88a3,3,0,0,0,.72-.46l1.9-1.59a.3.3,0,0,1,.4,0l.55.63a.34.34,0,0,1,.07.19.3.3,0,0,1-.1.22l-2,1.71a3.7,3.7,0,0,1-2.36,1,3.14,3.14,0,0,1-2.2-.86,2.92,2.92,0,0,1-.93-2.18,3.08,3.08,0,0,1,.9-2.18,3.12,3.12,0,0,1,2.18-.9A3.24,3.24,0,0,1,58,6a.5.5,0,0,1,.18.17.16.16,0,0,1,0,.12.24.24,0,0,1,0,.12l-.49.84a.21.21,0,0,1-.19.12.29.29,0,0,1-.2-.07A1.79,1.79,0,0,0,56.26,7a1.45,1.45,0,0,0-1.08.45,1.61,1.61,0,0,0-.42,1.1,1.55,1.55,0,0,0,.43,1.11,1.49,1.49,0,0,0,1.07.43A2.22,2.22,0,0,0,57.11,9.88Z"/><path class="cls-6" d="M59.17,2.83a.79.79,0,0,1,0-.13c0-.1.08-.15.23-.15h1.29a.28.28,0,0,1,.22.07.91.91,0,0,1,.12.26l2.3,6.17,2.34-6.3a.3.3,0,0,1,.3-.2H67.2c.14,0,.24.06.24.17a.29.29,0,0,1,0,.09l-3.3,8.28a.47.47,0,0,1-.19.29.75.75,0,0,1-.4.08h-.7c-.15,0-.21-.05-.25-.14Z"/><path class="cls-6" d="M67.86,3.16a.93.93,0,0,1,.65-.27.93.93,0,0,1,.66,1.57.9.9,0,0,1-.66.27.92.92,0,0,1-.92-.92A.88.88,0,0,1,67.86,3.16Zm-.12,2.69A.27.27,0,0,1,68,5.57h1a.3.3,0,0,1,.3.28V9.48l1.92-1.64a.33.33,0,0,1,.19-.09.25.25,0,0,1,.18.08l.08.09.24.25a3.1,3.1,0,0,1,.3.36.41.41,0,0,1,0,.17.26.26,0,0,1-.09.21l-2.76,2.34c-.17.15-.25.21-.39.21H68a.26.26,0,0,1-.28-.29Z"/><path class="cls-6" d="M72.23,5.57a.25.25,0,0,1,.26.18c0,.06,0,.12,0,.18s0,.12,0,.22v0a2.3,2.3,0,0,1,1.78-.73,2.87,2.87,0,0,1,2,.75,3.21,3.21,0,0,1,1,1.87L79.11,6.6a.48.48,0,0,1,.25-.11.16.16,0,0,1,.15.07l.57.78a.25.25,0,0,1,0,.15A.29.29,0,0,1,80,7.7l-3.14,2.38a3.45,3.45,0,0,1-1.07,1.05,2.65,2.65,0,0,1-1.42.4,2.37,2.37,0,0,1-1.65-.59v3.24a.27.27,0,0,1-.29.29h-1a.29.29,0,0,1-.3-.29V5.85a.24.24,0,0,1,.26-.28Zm.86,4.07a1.56,1.56,0,0,0,1.12.48,1.51,1.51,0,0,0,1.09-.46,1.63,1.63,0,0,0,.44-1.13,1.69,1.69,0,0,0-.44-1.16,1.45,1.45,0,0,0-1.09-.51,1.57,1.57,0,0,0-1.12.5,1.72,1.72,0,0,0-.47,1.15A1.59,1.59,0,0,0,73.09,9.64Z"/><path class="cls-6" d="M82.4,10a4.71,4.71,0,0,0,.82-.54l1.89-1.63a.32.32,0,0,1,.18-.06.24.24,0,0,1,.18.09l.63.73a.24.24,0,0,1,.06.14.23.23,0,0,1-.1.19l-2,1.76a4,4,0,0,1-2.44.9,3.23,3.23,0,0,1-2.19-.85,3,3,0,0,1-.94-2.21,3.06,3.06,0,0,1,3.1-3.06,3,3,0,0,1,1.21.28,2.66,2.66,0,0,1,1,.81A1.49,1.49,0,0,1,84,7a.62.62,0,0,1,0,.2.33.33,0,0,1-.14.31L80.67,10a1.37,1.37,0,0,0,.87.24A1.93,1.93,0,0,0,82.4,10Zm-.06-2.91a1.27,1.27,0,0,0-.79-.26,1.64,1.64,0,0,0-1.09.45A1.47,1.47,0,0,0,80,8.34a1.31,1.31,0,0,0,.05.49Z"/></g></g></svg>