<svg xmlns="http://www.w3.org/2000/svg" xmlns:xlink="http://www.w3.org/1999/xlink" viewBox="0 0 140.47 12.1"><defs><style>.cls-1,.cls-6{fill:none;}.cls-2{fill:url(#linear-gradient);}.cls-3{fill:#a9a9a9;}.cls-4{fill:#1d1d1b;}.cls-5{fill:#fff;}.cls-6{stroke:#be1622;stroke-linejoin:round;stroke-width:0.5px;}</style><linearGradient id="linear-gradient" x1="70.23" y1="1.11" x2="70.23" y2="10.43" gradientUnits="userSpaceOnUse"><stop offset="0" stop-color="#ffef26"/><stop offset="0.02" stop-color="#ffea21"/><stop offset="0.1" stop-color="#fed70f"/><stop offset="0.19" stop-color="#fdcc04"/><stop offset="0.28" stop-color="#fdc800"/><stop offset="0.67" stop-color="#f18f34"/><stop offset="0.89" stop-color="#e95f32"/><stop offset="1" stop-color="#e3312d"/></linearGradient></defs><title>Asset 10vipe8</title><g id="Layer_2" data-name="Layer 2"><g id="Layer_1-2" data-name="Layer 1"><path class="cls-1" d="M66.07,8.15a1.11,1.11,0,0,1-.88-.42A1.13,1.13,0,0,1,65,6.81l.79-3.94A1.12,1.12,0,0,1,66.85,2h3.34a1.1,1.1,0,0,1,.88.41,1.13,1.13,0,0,1,.24.92l-.79,3.94a1.1,1.1,0,0,1-1.11.92Z"/><path class="cls-1" d="M70.19,2.81H66.85a.26.26,0,0,0-.28.22L65.79,7a.24.24,0,0,0,.06.23.27.27,0,0,0,.22.1h3.34a.25.25,0,0,0,.28-.22l.78-3.93a.24.24,0,0,0-.06-.23A.27.27,0,0,0,70.19,2.81Z"/><path class="cls-1" d="M53.8,5.76,54.56,2h5.12a1.11,1.11,0,0,1,.89.43,1.13,1.13,0,0,1,.21.91l-.3,1.55a1.13,1.13,0,0,1-1.11.91Z"/><path class="cls-1" d="M59.68,2.81H55.26l-.42,2.1h4.53a.27.27,0,0,0,.28-.22L60,3.14a.27.27,0,0,0-.06-.23A.24.24,0,0,0,59.68,2.81Z"/><path class="cls-1" d="M120.58,5.76l.76-3.8h5.11a1.12,1.12,0,0,1,1.11,1.33l-.31,1.57a1.13,1.13,0,0,1-1.1.9Z"/><path class="cls-1" d="M126.45,2.81H122l-.42,2.1h4.54a.26.26,0,0,0,.26-.22l.32-1.55a.31.31,0,0,0-.06-.23A.27.27,0,0,0,126.45,2.81Z"/><path class="cls-2" d="M140.47,0H130.9V.06h0l0,.07h0V.19h0l0,.07h-.05V.32h0V.39h-.06V.45h-.05V.52h-.06V.58h-.05V.65h-.05l0,.06h-.05V.77h-.05l0,.07h-.05V.9H130V1h-.05a1.37,1.37,0,0,0-.13-.2,1.91,1.91,0,0,0-.7-.56A2,2,0,0,0,128.2,0h-9.13V.06H119V.13h0V.19h-.05l0,.07h0V.32h0l0,.07h0V.45h0l0,.07h0V.58h0l.11-.58h-8.76l0,.06h0l0,.07h0l0,.06h0l0,.07h0l0,.06h0l0,.07h0l0,.06h0l0,.07h0l0,.06h0l0,.07h0l0,.06h0l0,.06h0l0,.07h0l0,.06h0l0,.07h0l0,.06h0l0,.07h0l0,.06h0l0,.07h0l0,.06h0l0,.06h0l0,.07h0l0,.06h0l0,.07h0l0,.06h0l0,.07h0l0,.06h0l0,.07h0l0,.06h0l0,.07h0l0,.06h0l-.62,1.24L106.63,0h-4.38V.06h-.08V.13h-.07V.19h-.08l0,.07H102V.32h-.08l0,.07h-.08V.45h-.07V.52h-.08V.58h-.07V.65h-.08V.71h-.07V.77h-.08V.84h-.07V.9h-.08l0,.07h-.08V1h-.08l0,.07h-.08v.06h-.07v.07H101v.06H101v.06h-.08v.07h-.07v.06h-.08v.07h-.07v.06h-.08l0,.07h-.08v.06h0a.17.17,0,0,1,0-.07,2.39,2.39,0,0,0-.43-.84,2.16,2.16,0,0,0-.76-.61,2.35,2.35,0,0,0-1-.22H92.55a2.22,2.22,0,0,0-1.42.5,2.57,2.57,0,0,0-.29.28l-.06.07-.07.06L90.65,1,90.58,1l-.06.06a.46.46,0,0,1-.07.07l-.06.06s0,0-.06.07l0,0L90.55,0H86.3l0,.06h0V.13h0V.19H86.1V.26h0V.32h0l0,.07h0V.45h-.05l0,.07h0V.58h0L85.86,0H81.6V.06h0V.13h0l0,.06h0V.26h-.05l0,.06h0V.39h0l0,.06h0V.52h0V.58H81V.65H81V.71h0l0,.06h0V.84h0l0,.06h0V1h0l0,.06h-.05v.05L80.35,0H74.61V.06h0l0,.07h0V.19h0l0,.07h-.05V.32h0l0,.07h0V.45h0V.52h-.06V.58h0V.65H74V.71h0V.77h0l0,.07h0V.9h-.05l0,.07h0V1h0L73.48.82a2.35,2.35,0,0,0-.76-.6,2.31,2.31,0,0,0-1-.22H65.63a2.22,2.22,0,0,0-1.42.5,2.47,2.47,0,0,0-.28.28l-.07.06L63.8.91,63.73,1,63.67,1l-.07.06-.06.07-.07.06-.06.07s0,0-.06.06l-.06,0A2.19,2.19,0,0,0,63,.83a2.28,2.28,0,0,0-.76-.61,2.35,2.35,0,0,0-1-.22H52.43V.06h0V0H42.13V.06h-.06V.13h0V.19h-.06V.26h-.05V.32h0l0,.07h0V.45h0l0,.07a1.9,1.9,0,0,0-.44-.3,2.35,2.35,0,0,0-1-.22H34.41A2.22,2.22,0,0,0,33,.5a2.57,2.57,0,0,0-.29.28l-.06.07-.07.06L32.51,1a.46.46,0,0,1-.07.07l-.06.06-.06.07-.07.06-.06.07-.06.05L32.4,0H22.83V.06h-.05l0,.07H22.7V.19h-.05l0,.07h-.05V.32h0l0,.07h0V.45h-.05V.52h-.06V.58h-.05V.65h-.06V.71h-.05V.77h-.05l0,.07H22V.9h-.05l0,.07h-.05V1H21.8l0,.07h-.05v.06h0v.07H21.6v.06h-.05v.06h-.06v.07h-.05v.06h0l0,.07h0v.06h-.05l0,.07h-.05v.06h-.05l0,.07H21v.06H21v.07h-.06V2h-.05l-.89,4.44H16.78L18.06,0H13.53V.06h0l0,.07h0V.19h-.05l0,.07h-.05V.32h0l0,.07h0V.45h-.05V.52H13V.58h0L13.11,0H3.52V.06h0l0,.07h0V.19h0V.26H3.26V.32h0V.39h0l0,.06H3.07V.52H3L3,.58H2.94V.65H2.88l0,.06h0V.77h0V.84H2.68V.9h0V1H2.55V1h0V1.1h0l0,.06H2.36v.07H2.3l0,.06h0v.06H2.17l0,.07h0v.06H2v.07H2v.06H1.91v.07H1.84v.06H1.78v.07H1.72l0,.06H1.65v.07h0l0,.06H1.52L0,9.41a2.28,2.28,0,0,0,0,1,2.51,2.51,0,0,0,.42.85,2.25,2.25,0,0,0,.76.61,2.4,2.4,0,0,0,1,.22H9.09V12h.05V12h.06v-.06h0v-.07h.06v-.06h.05v-.07h.05l0-.06h0v-.07h0l0-.06h0l-.12.58H28.38V12h.05l0-.07h.05v-.06h.05l0-.07h.05v-.06h.05v-.07h.06v-.06h0v-.07h.05l0-.06H29v-.06H29l0-.07h.05v-.06h0l0-.07h0V11.2h.05v-.07h.05a1.37,1.37,0,0,0,.13.2,2,2,0,0,0,.72.57,2.12,2.12,0,0,0,.9.2h6a2.22,2.22,0,0,0,1.42-.5,1.92,1.92,0,0,0,.29-.28l.07-.06.06-.07.07-.06.06-.07.06-.06a.23.23,0,0,0,.07-.07l.06-.06a.46.46,0,0,0,.07-.07l.06-.06.07-.06.06-.07.07-.06.06-.07.07-.06.06-.07.06-.06a.23.23,0,0,0,.07-.07l.06-.06L40,10.1l.06-.07.07-.06.06-.07.07-.06.06-.07.07-.06.06-.07.06-.06a.23.23,0,0,0,.07-.07l.06-.06.07-.06a2.27,2.27,0,0,0,.56-1.1l.53-2.63h.55L41.07,12.1H45.6V12h0l0-.07h0v-.06h0l0-.07h0v-.06h.05v-.07H46v-.06h0v-.07h.06v-.06h0v-.06h.05l0-.07h.05v-.06h0l0-.07h0V11.2h0l0-.07h0v-.06h.05V11h.06v-.06h0v-.06h.06v-.07h0v-.06H47l0-.07H47v-.06h0l0-.07h0v-.06h.05l0-.07h.05v-.06h.05v-.07h.06v-.06h0v-.06h.05l0-.07h.05l.89-4.44h1.2V5.59h0L48.41,12.1h4.26V12h0V12h.06v-.06h0v-.07h.05l0-.06H53v-.07h0l0-.06h0v-.07h0l0-.06h0v-.06h.05v-.07h.06v-.06h0v-.07h.06V11.2h0v-.07h.05l0-.06h.05V11h0l0-.06h0v-.06h0l0-.07H54v-.06H54v-.07h.06v-.06h0v-.07h.06v-.06h.05v-.07h.05l0-.06h0v-.07h0l0-.06h0v-.06h.05l0-.07h.05l.07-.37H55L56,12.1h4.39l0-.06h.09l0-.07h.09l0-.06h.09l0-.07h.09l0-.06h.1l0-.07h.09l0-.06h.1l0-.07h.09l0-.06H61v0a2,2,0,0,0,.53.38,2.32,2.32,0,0,0,1,.22h6.09A2.22,2.22,0,0,0,70,11.6a1.92,1.92,0,0,0,.29-.28l.07-.06.06-.07.06-.06.07-.07.06-.06a.46.46,0,0,0,.07-.07l.06-.06.07-.06h0l-.26,1.3h4.25l0-.06h0V12h0l0-.06H75v-.07h0v-.06h.06v-.07h0v-.06h.06v-.07h0v-.06h0l0-.06h0v-.07h0l0-.06h.05v-.07h.05l0-.06h0v-.07h0v-.06h.06V11h0l.22,1.1h5.73V12h.05l0-.07h0v-.06h0l0-.07h0v-.06h0l0-.07h0v-.06h.05v-.07h.06v-.06h0l-.11.58h4.25V12h.06V12h0v-.06h.06v-.07h.05v-.06h0l0-.07h0v-.06h0l0-.07h0v-.06h0l0-.06h.05v-.07h0v-.06h.06v-.07h.05V11.2h.06v-.07h0a1.37,1.37,0,0,0,.13.2,2.08,2.08,0,0,0,.71.57,2.19,2.19,0,0,0,.91.2h6a2.24,2.24,0,0,0,1.43-.5,1.92,1.92,0,0,0,.29-.28l.07-.06.06-.07.07-.06.06-.07.06-.06a.46.46,0,0,0,.07-.07l.06-.06.07-.07.06-.06.07-.06.06-.07.07-.06.06-.07.06-.06a.23.23,0,0,0,.07-.07l.06-.06.07-.07.06-.06a.46.46,0,0,0,.07-.07L98.2,10l.07-.06.06-.07.07-.06.06-.07.06-.06.07-.07.06-.06a.46.46,0,0,0,.07-.07l.06-.06.07-.06a2.27,2.27,0,0,0,.56-1.1L100,5.6h-.83V5.53h.06V5.46h0V5.4h0l0-.06h0V5.27h0l0-.06h.05V5.14h0l0-.06h0V5h0V5h.06V4.88h0V4.82h0l0-.06h0V4.69h0l0-.06h0V4.56h.05l0-.06h0l.25-1.26,1.62,8.86h5.43l0-.06h0l0-.07h0l0-.06h0l0-.07h0l0-.06h0l0-.07h0l0-.06h0l0-.07h0l0-.06h0l0-.06h0l0-.07h0l0-.06h0l0-.07h0l0-.06h0l0-.07h0l0-.06h0l0-.07h0l0-.06h0l0-.06h0l0-.07h0l0-.06h0l0-.07h0l0-.06h0l0-.07h0l0-.06h0l0-.07h0l0-.06h0l0-.07h0l0-.06h0l0-.06h0l0-.07h0l2-3.93-1.19,5.93h4.25l0-.06h0V12h0v-.06h.06v-.07h0v-.06H115v-.07H115v-.06h0l0-.07h0v-.06h0l-.12.58h4.4V12h.05l0-.07h0v-.06h0l0-.07h0v-.06h0l0-.07h0v-.06h.05v-.07H120v-.06h0v-.06h.06v-.07h0v-.06h0l0-.07h.05V11.2h0l0-.07h0v-.06h0V11h.06v-.06h0v-.06h.06v-.07h0v-.06h0l0-.07h.05v-.06h.05l0-.07h0v-.06h0l0-.07h0v-.06h0v-.07h.06v-.06h0v-.06h.06V10.1h0l.07-.37h3.83a2.26,2.26,0,0,0,1.43-.5,2.65,2.65,0,0,0,.29-.29l.06-.06.07-.06.06-.07.07-.06.06-.07.06-.06a.23.23,0,0,0,.07-.07l.06-.06,0,0-.74,3.71h9.57V12h0l0-.07h.05v-.06h0l0-.07h.05v-.06h.05l0-.07h.05v-.06h.05v-.07H137v-.06H137v-.06h.06v-.07h0v-.06h.05l0-.07h0V11.2h0l0-.07h0v-.06h0l0-.07h.05v-.06h.05v-.06h.06v-.07h.05v-.06h.05l0-.07h.05v-.06h.05l0-.07H138v-.06h.05l0-.07h0v-.06h.05v-.07h.06v-.06h0v-.06h.06V10.1h0l.74-3.66h-.84l.35-1.75h0V4.62h.05l0-.06h0V4.5h0V4.43H139V4.37h0V4.3h.06V4.24h0V4.17h0l0-.06h.05V4h.05l0-.06h.05V3.92h.05l0-.07h.05V3.79h.05V3.72h.06V3.66h.05Zm-73,5.66-.15.78h-.59l.16-.78Zm-31.81,0H36l-.17.78h-.28Zm58.14,0h.3L94,6.44h-.28Z"/><path class="cls-3" d="M2.21,8.18a1.49,1.49,0,0,0,0,.63,1.71,1.71,0,0,0,.27.54,1.4,1.4,0,0,0,1.09.51H9.72l.39-2h-5a.27.27,0,0,1-.22-.1.32.32,0,0,1-.06-.23l.19-1h4.5l.36-1.82H5.43l.18-.92L4.2,3.41H11l.39-1.95H3.55Z"/><polygon class="cls-3" points="16.36 1.46 13.56 1.46 11.88 9.86 19.89 9.86 20.28 7.9 15.07 7.9 16.36 1.46"/><polygon class="cls-3" points="21.18 9.86 29.02 9.86 29.41 7.9 24.1 7.9 24.35 6.64 28.82 6.64 29.22 4.67 24.73 4.67 24.98 3.41 30.31 3.41 30.7 1.46 22.86 1.46 21.18 9.86"/><path class="cls-3" d="M40.65,2a1.32,1.32,0,0,0-1.08-.51H33.75a1.34,1.34,0,0,0-.89.31,1.31,1.31,0,0,0-.48.82L31.21,8.38a1.13,1.13,0,0,0,0,.55,1.09,1.09,0,0,0,.24.48,1.14,1.14,0,0,0,.42.33,1.19,1.19,0,0,0,.54.12h6a1.42,1.42,0,0,0,.89-.31,1.32,1.32,0,0,0,.49-.82l.33-1.67H37.59l-.14.61a.24.24,0,0,1-.27.23h-3A.27.27,0,0,1,34,7.8a.32.32,0,0,1-.06-.23l.78-3.93A.27.27,0,0,1,35,3.41H38a.28.28,0,0,1,.22.11.3.3,0,0,1,.06.23l-.11.5h2.52L41,3.13a1.33,1.33,0,0,0,0-.63A1.27,1.27,0,0,0,40.65,2Z"/><polygon class="cls-3" points="41.76 3.41 44.73 3.41 43.44 9.86 46.24 9.86 47.53 3.41 50.33 3.41 50.73 1.46 42.16 1.46 41.76 3.41"/><path class="cls-3" d="M61.64,2a1.46,1.46,0,0,0-.47-.38,1.41,1.41,0,0,0-.62-.13H52.46l-1.67,8.4H53.3l.49-2.38h3.07l1.06,2.38h2.52L59.38,7.48h.54a1.33,1.33,0,0,0,.88-.31,1.37,1.37,0,0,0,.49-.82l.64-3.22a1.48,1.48,0,0,0,0-.63A1.56,1.56,0,0,0,61.64,2ZM59,5.3a.26.26,0,0,1-.27.21H54.17l.42-2.1H59a.28.28,0,0,1,.21.11.26.26,0,0,1,.05.23Z"/><path class="cls-3" d="M72.16,2a1.5,1.5,0,0,0-.48-.38,1.38,1.38,0,0,0-.6-.13H65a1.36,1.36,0,0,0-.89.31,1.31,1.31,0,0,0-.48.82L62.47,8.18a1.35,1.35,0,0,0,0,.63,1.38,1.38,0,0,0,.27.54,1.39,1.39,0,0,0,.46.37,1.44,1.44,0,0,0,.62.14H70a1.44,1.44,0,0,0,.89-.31,1.37,1.37,0,0,0,.49-.82l1.11-5.6a1.22,1.22,0,0,0,0-.63A1.4,1.4,0,0,0,72.16,2ZM69,7.67a.25.25,0,0,1-.27.23H65.4a.27.27,0,0,1-.22-.1.32.32,0,0,1-.06-.23l.78-3.93a.28.28,0,0,1,.28-.23h3.35a.25.25,0,0,1,.21.11.24.24,0,0,1,.06.23Z"/><polygon class="cls-3" points="80.32 8.11 78.98 1.46 74.64 1.46 72.96 9.86 75.48 9.86 76.81 3.21 78.14 9.86 82.48 9.86 84.16 1.46 81.64 1.46 80.32 8.11"/><polygon class="cls-3" points="84.65 9.86 87.17 9.86 88.85 1.46 86.33 1.46 84.65 9.86"/><path class="cls-3" d="M98.79,2a1.36,1.36,0,0,0-.47-.38,1.41,1.41,0,0,0-.62-.13H91.88a1.33,1.33,0,0,0-.88.31,1.31,1.31,0,0,0-.48.82L89.35,8.38a1.27,1.27,0,0,0,0,.55,1.35,1.35,0,0,0,.24.48,1.34,1.34,0,0,0,.42.33,1.25,1.25,0,0,0,.54.12h6a1.44,1.44,0,0,0,.89-.31,1.37,1.37,0,0,0,.49-.82l.33-1.67H95.72l-.13.61a.24.24,0,0,1-.27.23h-3a.27.27,0,0,1-.22-.1A.25.25,0,0,1,92,7.57l.78-3.93a.27.27,0,0,1,.28-.23h3.07a.25.25,0,0,1,.21.11.24.24,0,0,1,.06.23l-.1.5h2.52l.22-1.12a1.33,1.33,0,0,0,0-.63A1.56,1.56,0,0,0,98.79,2Z"/><polygon class="cls-3" points="106.52 7.9 105.04 7.9 106.44 7.48 105.26 1.46 102.6 1.46 104.14 9.86 108.34 9.86 112.68 1.46 109.74 1.46 106.52 7.9"/><polygon class="cls-3" points="112.74 9.86 115.26 9.86 116.94 1.46 114.42 1.46 112.74 9.86"/><path class="cls-3" d="M128.48,1.91a1.2,1.2,0,0,0-.41-.33,1.18,1.18,0,0,0-.53-.12H119.1l-1.68,8.4h2.66l.47-2.38h6.13a1.39,1.39,0,0,0,.9-.31,1.31,1.31,0,0,0,.48-.82l.69-3.42a1.13,1.13,0,0,0,0-.55A1.26,1.26,0,0,0,128.48,1.91ZM125.75,5.3a.26.26,0,0,1-.27.21H121l.42-2.1h4.41a.28.28,0,0,1,.22.11.24.24,0,0,1,.06.23Z"/><polygon class="cls-3" points="138.38 3.41 138.77 1.46 130.93 1.46 129.25 9.86 137.09 9.86 137.48 7.9 132.17 7.9 132.42 6.64 136.9 6.64 137.29 4.67 132.8 4.67 133.06 3.41 138.38 3.41"/><path class="cls-4" d="M2.21,8.18a1.49,1.49,0,0,0,0,.63,1.71,1.71,0,0,0,.27.54,1.4,1.4,0,0,0,1.09.51H9.72l.39-2h-5a.27.27,0,0,1-.22-.1.32.32,0,0,1-.06-.23l.19-1h4.5l.36-1.82H5.43l.18-.92L4.2,3.41H11l.39-1.95H3.55Z"/><polygon class="cls-4" points="16.36 1.46 13.56 1.46 11.88 9.86 19.89 9.86 20.28 7.9 15.07 7.9 16.36 1.46"/><polygon class="cls-4" points="21.18 9.86 29.02 9.86 29.41 7.9 24.1 7.9 24.35 6.64 28.82 6.64 29.22 4.67 24.73 4.67 24.98 3.41 30.31 3.41 30.7 1.46 22.86 1.46 21.18 9.86"/><path class="cls-4" d="M40.65,2a1.32,1.32,0,0,0-1.08-.51H33.75a1.34,1.34,0,0,0-.89.31,1.31,1.31,0,0,0-.48.82L31.21,8.38a1.13,1.13,0,0,0,0,.55,1.09,1.09,0,0,0,.24.48,1.14,1.14,0,0,0,.42.33,1.19,1.19,0,0,0,.54.12h6a1.42,1.42,0,0,0,.89-.31,1.32,1.32,0,0,0,.49-.82l.33-1.67H37.59l-.14.61a.24.24,0,0,1-.27.23h-3A.27.27,0,0,1,34,7.8a.32.32,0,0,1-.06-.23l.78-3.93A.27.27,0,0,1,35,3.41H38a.28.28,0,0,1,.22.11.3.3,0,0,1,.06.23l-.11.5h2.52L41,3.13a1.33,1.33,0,0,0,0-.63A1.27,1.27,0,0,0,40.65,2Z"/><polygon class="cls-4" points="41.76 3.41 44.73 3.41 43.44 9.86 46.24 9.86 47.53 3.41 50.33 3.41 50.73 1.46 42.16 1.46 41.76 3.41"/><path class="cls-4" d="M61.64,2a1.46,1.46,0,0,0-.47-.38,1.41,1.41,0,0,0-.62-.13H52.46l-1.67,8.4H53.3l.49-2.38h3.07l1.06,2.38h2.52L59.38,7.48h.54a1.33,1.33,0,0,0,.88-.31,1.37,1.37,0,0,0,.49-.82l.64-3.22a1.48,1.48,0,0,0,0-.63A1.56,1.56,0,0,0,61.64,2ZM59,5.3a.26.26,0,0,1-.27.21H54.17l.42-2.1H59a.28.28,0,0,1,.21.11.26.26,0,0,1,.05.23Z"/><path class="cls-4" d="M72.16,2a1.5,1.5,0,0,0-.48-.38,1.38,1.38,0,0,0-.6-.13H65a1.36,1.36,0,0,0-.89.31,1.31,1.31,0,0,0-.48.82L62.47,8.18a1.35,1.35,0,0,0,0,.63,1.38,1.38,0,0,0,.27.54,1.39,1.39,0,0,0,.46.37,1.44,1.44,0,0,0,.62.14H70a1.44,1.44,0,0,0,.89-.31,1.37,1.37,0,0,0,.49-.82l1.11-5.6a1.22,1.22,0,0,0,0-.63A1.4,1.4,0,0,0,72.16,2ZM69,7.67a.25.25,0,0,1-.27.23H65.4a.27.27,0,0,1-.22-.1.32.32,0,0,1-.06-.23l.78-3.93a.28.28,0,0,1,.28-.23h3.35a.25.25,0,0,1,.21.11.24.24,0,0,1,.06.23Z"/><polygon class="cls-4" points="80.32 8.11 78.98 1.46 74.64 1.46 72.96 9.86 75.48 9.86 76.81 3.21 78.14 9.86 82.48 9.86 84.16 1.46 81.64 1.46 80.32 8.11"/><polygon class="cls-4" points="84.65 9.86 87.17 9.86 88.85 1.46 86.33 1.46 84.65 9.86"/><path class="cls-4" d="M98.79,2a1.36,1.36,0,0,0-.47-.38,1.41,1.41,0,0,0-.62-.13H91.88a1.33,1.33,0,0,0-.88.31,1.31,1.31,0,0,0-.48.82L89.35,8.38a1.27,1.27,0,0,0,0,.55,1.35,1.35,0,0,0,.24.48,1.34,1.34,0,0,0,.42.33,1.25,1.25,0,0,0,.54.12h6a1.44,1.44,0,0,0,.89-.31,1.37,1.37,0,0,0,.49-.82l.33-1.67H95.72l-.13.61a.24.24,0,0,1-.27.23h-3a.27.27,0,0,1-.22-.1A.25.25,0,0,1,92,7.57l.78-3.93a.27.27,0,0,1,.28-.23h3.07a.25.25,0,0,1,.21.11.24.24,0,0,1,.06.23l-.1.5h2.52l.22-1.12a1.33,1.33,0,0,0,0-.63A1.56,1.56,0,0,0,98.79,2Z"/><polygon class="cls-4" points="106.52 7.9 105.04 7.9 106.44 7.48 105.26 1.46 102.6 1.46 104.14 9.86 108.34 9.86 112.68 1.46 109.74 1.46 106.52 7.9"/><polygon class="cls-4" points="112.74 9.86 115.26 9.86 116.94 1.46 114.42 1.46 112.74 9.86"/><path class="cls-4" d="M128.48,1.91a1.2,1.2,0,0,0-.41-.33,1.18,1.18,0,0,0-.53-.12H119.1l-1.68,8.4h2.66l.47-2.38h6.13a1.39,1.39,0,0,0,.9-.31,1.31,1.31,0,0,0,.48-.82l.69-3.42a1.13,1.13,0,0,0,0-.55A1.26,1.26,0,0,0,128.48,1.91ZM125.75,5.3a.26.26,0,0,1-.27.21H121l.42-2.1h4.41a.28.28,0,0,1,.22.11.24.24,0,0,1,.06.23Z"/><polygon class="cls-4" points="138.38 3.41 138.77 1.46 130.93 1.46 129.25 9.86 137.09 9.86 137.48 7.9 132.17 7.9 132.42 6.64 136.9 6.64 137.29 4.67 132.8 4.67 133.06 3.41 138.38 3.41"/><path class="cls-5" d="M2.88,7.57a1.33,1.33,0,0,0,0,.63,1.71,1.71,0,0,0,.27.54,1.23,1.23,0,0,0,.47.37,1.41,1.41,0,0,0,.62.14h6.13l.38-2h-5a.25.25,0,0,1-.21-.1A.24.24,0,0,1,5.53,7l.19-1h4.5l.36-1.82H6.09l.18-.91-1.4-.42h6.8l.4-2H4.22Z"/><polygon class="cls-5" points="17.02 0.85 14.23 0.85 12.55 9.25 20.55 9.25 20.95 7.29 15.74 7.29 17.02 0.85"/><polygon class="cls-5" points="21.85 9.25 29.68 9.25 30.08 7.29 24.76 7.29 25.02 6.04 29.49 6.04 29.89 4.07 25.4 4.07 25.65 2.81 30.98 2.81 31.36 0.85 23.53 0.85 21.85 9.25"/><path class="cls-5" d="M41.32,1.36A1.31,1.31,0,0,0,40.85,1a1.41,1.41,0,0,0-.62-.14H34.41a1.38,1.38,0,0,0-.89.31A1.4,1.4,0,0,0,33,2L31.88,7.77a1.17,1.17,0,0,0,0,.56,1.4,1.4,0,0,0,.24.47,1.14,1.14,0,0,0,.42.33,1.25,1.25,0,0,0,.54.12h6a1.39,1.39,0,0,0,1.38-1.13l.33-1.67H38.25l-.13.62a.24.24,0,0,1-.28.22h-3a.25.25,0,0,1-.21-.1A.24.24,0,0,1,34.57,7L35.35,3a.26.26,0,0,1,.27-.22H38.7a.25.25,0,0,1,.21.1.24.24,0,0,1,.06.23l-.11.51h2.52l.23-1.13a1.48,1.48,0,0,0,0-.63A1.66,1.66,0,0,0,41.32,1.36Z"/><polygon class="cls-5" points="42.43 2.81 45.39 2.81 44.11 9.25 46.9 9.25 48.2 2.81 50.99 2.81 51.39 0.85 42.82 0.85 42.43 2.81"/><path class="cls-5" d="M62.31,1.36A1.31,1.31,0,0,0,61.84,1a1.44,1.44,0,0,0-.62-.14H53.13l-1.68,8.4H54l.48-2.38h3.07l1.07,2.38h2.52L60,6.87h.54a1.34,1.34,0,0,0,.89-.31A1.31,1.31,0,0,0,62,5.75l.65-3.23a1.33,1.33,0,0,0,0-.63A1.46,1.46,0,0,0,62.31,1.36ZM59.65,4.69a.27.27,0,0,1-.28.22H54.84l.42-2.1h4.42a.24.24,0,0,1,.21.1.27.27,0,0,1,.06.23Z"/><path class="cls-5" d="M72.82,1.36A1.31,1.31,0,0,0,72.35,1a1.4,1.4,0,0,0-.61-.14H65.63a1.33,1.33,0,0,0-.88.31,1.31,1.31,0,0,0-.48.82L63.14,7.57a1.48,1.48,0,0,0,0,.63,1.71,1.71,0,0,0,.27.54,1.31,1.31,0,0,0,.47.37,1.41,1.41,0,0,0,.62.14h6.09a1.39,1.39,0,0,0,.9-.31A1.31,1.31,0,0,0,72,8.12l1.12-5.6a1.34,1.34,0,0,0,0-.63A1.5,1.5,0,0,0,72.82,1.36ZM69.69,7.07a.25.25,0,0,1-.28.22H66.07a.27.27,0,0,1-.22-.1A.24.24,0,0,1,65.79,7L66.57,3a.26.26,0,0,1,.28-.22h3.34a.27.27,0,0,1,.22.1.24.24,0,0,1,.06.23Z"/><polygon class="cls-5" points="80.98 7.5 79.65 0.85 75.31 0.85 73.63 9.25 76.15 9.25 77.48 2.6 78.81 9.25 83.14 9.25 84.82 0.85 82.3 0.85 80.98 7.5"/><polygon class="cls-5" points="85.31 9.25 87.83 9.25 89.52 0.85 87 0.85 85.31 9.25"/><path class="cls-5" d="M99.46,1.36A1.31,1.31,0,0,0,99,1a1.44,1.44,0,0,0-.62-.14H92.55a1.36,1.36,0,0,0-.89.31,1.4,1.4,0,0,0-.48.82L90,7.77a1.17,1.17,0,0,0,0,.56,1.4,1.4,0,0,0,.24.47,1.14,1.14,0,0,0,.42.33,1.25,1.25,0,0,0,.54.12h6a1.39,1.39,0,0,0,.9-.31,1.31,1.31,0,0,0,.48-.82l.34-1.67H96.39l-.13.62a.25.25,0,0,1-.28.22H93a.24.24,0,0,1-.21-.1A.24.24,0,0,1,92.71,7L93.49,3a.26.26,0,0,1,.27-.22h3.07a.27.27,0,0,1,.22.1.24.24,0,0,1,.06.23L97,3.65h2.52l.23-1.13a1.48,1.48,0,0,0,0-.63A1.66,1.66,0,0,0,99.46,1.36Z"/><polygon class="cls-5" points="107.19 7.29 105.7 7.29 107.11 6.88 105.93 0.85 103.27 0.85 104.8 9.25 109 9.25 113.35 0.85 110.41 0.85 107.19 7.29"/><polygon class="cls-5" points="113.41 9.25 115.93 9.25 117.61 0.85 115.09 0.85 113.41 9.25"/><path class="cls-5" d="M129.15,1.3a1.2,1.2,0,0,0-.41-.33,1.25,1.25,0,0,0-.54-.12h-8.43l-1.68,8.4h2.66l.47-2.38h6.13a1.36,1.36,0,0,0,.89-.31,1.32,1.32,0,0,0,.49-.81l.68-3.42a1.17,1.17,0,0,0,0-.56A1.63,1.63,0,0,0,129.15,1.3Zm-2.74,3.39a.26.26,0,0,1-.26.22h-4.54l.42-2.1h4.42a.27.27,0,0,1,.22.1.31.31,0,0,1,.06.23Z"/><polygon class="cls-5" points="139.05 2.81 139.43 0.85 131.6 0.85 129.92 9.25 137.75 9.25 138.15 7.29 132.84 7.29 133.09 6.04 137.56 6.04 137.96 4.07 133.47 4.07 133.72 2.81 139.05 2.81"/><path class="cls-6" d="M2.88,7.57a1.33,1.33,0,0,0,0,.63,1.71,1.71,0,0,0,.27.54,1.23,1.23,0,0,0,.47.37,1.41,1.41,0,0,0,.62.14h6.13l.38-2h-5a.25.25,0,0,1-.21-.1A.24.24,0,0,1,5.53,7l.19-1h4.5l.36-1.82H6.09l.18-.91-1.4-.42h6.8l.4-2H4.22Z"/><polygon class="cls-6" points="17.02 0.85 14.23 0.85 12.55 9.25 20.55 9.25 20.95 7.29 15.74 7.29 17.02 0.85"/><polygon class="cls-6" points="21.85 9.25 29.68 9.25 30.08 7.29 24.76 7.29 25.02 6.04 29.49 6.04 29.89 4.07 25.4 4.07 25.65 2.81 30.98 2.81 31.36 0.85 23.53 0.85 21.85 9.25"/><path class="cls-6" d="M41.32,1.36A1.31,1.31,0,0,0,40.85,1a1.41,1.41,0,0,0-.62-.14H34.41a1.38,1.38,0,0,0-.89.31A1.4,1.4,0,0,0,33,2L31.88,7.77a1.17,1.17,0,0,0,0,.56,1.4,1.4,0,0,0,.24.47,1.14,1.14,0,0,0,.42.33,1.25,1.25,0,0,0,.54.12h6a1.39,1.39,0,0,0,1.38-1.13l.33-1.67H38.25l-.13.62a.24.24,0,0,1-.28.22h-3a.25.25,0,0,1-.21-.1A.24.24,0,0,1,34.57,7L35.35,3a.26.26,0,0,1,.27-.22H38.7a.25.25,0,0,1,.21.1.24.24,0,0,1,.06.23l-.11.51h2.52l.23-1.13a1.48,1.48,0,0,0,0-.63A1.66,1.66,0,0,0,41.32,1.36Z"/><polygon class="cls-6" points="42.43 2.81 45.39 2.81 44.11 9.25 46.9 9.25 48.2 2.81 50.99 2.81 51.39 0.85 42.82 0.85 42.43 2.81"/><path class="cls-6" d="M62.31,1.36A1.31,1.31,0,0,0,61.84,1a1.44,1.44,0,0,0-.62-.14H53.13l-1.68,8.4H54l.48-2.38h3.07l1.07,2.38h2.52L60,6.87h.54a1.34,1.34,0,0,0,.89-.31A1.31,1.31,0,0,0,62,5.75l.65-3.23a1.33,1.33,0,0,0,0-.63A1.46,1.46,0,0,0,62.31,1.36ZM59.65,4.69a.27.27,0,0,1-.28.22H54.84l.42-2.1h4.42a.24.24,0,0,1,.21.1.27.27,0,0,1,.06.23Z"/><path class="cls-6" d="M72.82,1.36A1.31,1.31,0,0,0,72.35,1a1.4,1.4,0,0,0-.61-.14H65.63a1.33,1.33,0,0,0-.88.31,1.31,1.31,0,0,0-.48.82L63.14,7.57a1.48,1.48,0,0,0,0,.63,1.71,1.71,0,0,0,.27.54,1.31,1.31,0,0,0,.47.37,1.41,1.41,0,0,0,.62.14h6.09a1.39,1.39,0,0,0,.9-.31A1.31,1.31,0,0,0,72,8.12l1.12-5.6a1.34,1.34,0,0,0,0-.63A1.5,1.5,0,0,0,72.82,1.36ZM69.69,7.07a.25.25,0,0,1-.28.22H66.07a.27.27,0,0,1-.22-.1A.24.24,0,0,1,65.79,7L66.57,3a.26.26,0,0,1,.28-.22h3.34a.27.27,0,0,1,.22.1.24.24,0,0,1,.06.23Z"/><polygon class="cls-6" points="80.98 7.5 79.65 0.85 75.31 0.85 73.63 9.25 76.15 9.25 77.48 2.6 78.81 9.25 83.14 9.25 84.82 0.85 82.3 0.85 80.98 7.5"/><polygon class="cls-6" points="85.31 9.25 87.83 9.25 89.52 0.85 87 0.85 85.31 9.25"/><path class="cls-6" d="M99.46,1.36A1.31,1.31,0,0,0,99,1a1.44,1.44,0,0,0-.62-.14H92.55a1.36,1.36,0,0,0-.89.31,1.4,1.4,0,0,0-.48.82L90,7.77a1.17,1.17,0,0,0,0,.56,1.4,1.4,0,0,0,.24.47,1.14,1.14,0,0,0,.42.33,1.25,1.25,0,0,0,.54.12h6a1.39,1.39,0,0,0,.9-.31,1.31,1.31,0,0,0,.48-.82l.34-1.67H96.39l-.13.62a.25.25,0,0,1-.28.22H93a.24.24,0,0,1-.21-.1A.24.24,0,0,1,92.71,7L93.49,3a.26.26,0,0,1,.27-.22h3.07a.27.27,0,0,1,.22.1.24.24,0,0,1,.06.23L97,3.65h2.52l.23-1.13a1.48,1.48,0,0,0,0-.63A1.66,1.66,0,0,0,99.46,1.36Z"/><polygon class="cls-6" points="107.19 7.29 105.7 7.29 107.11 6.88 105.93 0.85 103.27 0.85 104.8 9.25 109 9.25 113.35 0.85 110.41 0.85 107.19 7.29"/><polygon class="cls-6" points="113.41 9.25 115.93 9.25 117.61 0.85 115.09 0.85 113.41 9.25"/><path class="cls-6" d="M129.15,1.3a1.2,1.2,0,0,0-.41-.33,1.25,1.25,0,0,0-.54-.12h-8.43l-1.68,8.4h2.66l.47-2.38h6.13a1.36,1.36,0,0,0,.89-.31,1.32,1.32,0,0,0,.49-.81l.68-3.42a1.17,1.17,0,0,0,0-.56A1.63,1.63,0,0,0,129.15,1.3Zm-2.74,3.39a.26.26,0,0,1-.26.22h-4.54l.42-2.1h4.42a.27.27,0,0,1,.22.1.31.31,0,0,1,.06.23Z"/><polygon class="cls-6" points="139.05 2.81 139.43 0.85 131.6 0.85 129.92 9.25 137.75 9.25 138.15 7.29 132.84 7.29 133.09 6.04 137.56 6.04 137.96 4.07 133.47 4.07 133.72 2.81 139.05 2.81"/><path class="cls-5" d="M2.88,7.57a1.33,1.33,0,0,0,0,.63,1.71,1.71,0,0,0,.27.54,1.23,1.23,0,0,0,.47.37,1.41,1.41,0,0,0,.62.14h6.13l.38-2h-5a.25.25,0,0,1-.21-.1A.24.24,0,0,1,5.53,7l.19-1h4.5l.36-1.82H6.09l.18-.91-1.4-.42h6.8l.4-2H4.22Z"/><polygon class="cls-5" points="17.02 0.85 14.23 0.85 12.55 9.25 20.55 9.25 20.95 7.29 15.74 7.29 17.02 0.85"/><polygon class="cls-5" points="21.85 9.25 29.68 9.25 30.08 7.29 24.76 7.29 25.02 6.04 29.49 6.04 29.89 4.07 25.4 4.07 25.65 2.81 30.98 2.81 31.36 0.85 23.53 0.85 21.85 9.25"/><path class="cls-5" d="M41.32,1.36A1.31,1.31,0,0,0,40.85,1a1.41,1.41,0,0,0-.62-.14H34.41a1.38,1.38,0,0,0-.89.31A1.4,1.4,0,0,0,33,2L31.88,7.77a1.17,1.17,0,0,0,0,.56,1.4,1.4,0,0,0,.24.47,1.14,1.14,0,0,0,.42.33,1.25,1.25,0,0,0,.54.12h6a1.39,1.39,0,0,0,1.38-1.13l.33-1.67H38.25l-.13.62a.24.24,0,0,1-.28.22h-3a.25.25,0,0,1-.21-.1A.24.24,0,0,1,34.57,7L35.35,3a.26.26,0,0,1,.27-.22H38.7a.25.25,0,0,1,.21.1.24.24,0,0,1,.06.23l-.11.51h2.52l.23-1.13a1.48,1.48,0,0,0,0-.63A1.66,1.66,0,0,0,41.32,1.36Z"/><polygon class="cls-5" points="42.43 2.81 45.39 2.81 44.11 9.25 46.9 9.25 48.2 2.81 50.99 2.81 51.39 0.85 42.82 0.85 42.43 2.81"/><path class="cls-5" d="M62.31,1.36A1.31,1.31,0,0,0,61.84,1a1.44,1.44,0,0,0-.62-.14H53.13l-1.68,8.4H54l.48-2.38h3.07l1.07,2.38h2.52L60,6.87h.54a1.34,1.34,0,0,0,.89-.31A1.31,1.31,0,0,0,62,5.75l.65-3.23a1.33,1.33,0,0,0,0-.63A1.46,1.46,0,0,0,62.31,1.36ZM59.65,4.69a.27.27,0,0,1-.28.22H54.84l.42-2.1h4.42a.24.24,0,0,1,.21.1.27.27,0,0,1,.06.23Z"/><path class="cls-5" d="M72.82,1.36A1.31,1.31,0,0,0,72.35,1a1.4,1.4,0,0,0-.61-.14H65.63a1.33,1.33,0,0,0-.88.31,1.31,1.31,0,0,0-.48.82L63.14,7.57a1.48,1.48,0,0,0,0,.63,1.71,1.71,0,0,0,.27.54,1.31,1.31,0,0,0,.47.37,1.41,1.41,0,0,0,.62.14h6.09a1.39,1.39,0,0,0,.9-.31A1.31,1.31,0,0,0,72,8.12l1.12-5.6a1.34,1.34,0,0,0,0-.63A1.5,1.5,0,0,0,72.82,1.36ZM69.69,7.07a.25.25,0,0,1-.28.22H66.07a.27.27,0,0,1-.22-.1A.24.24,0,0,1,65.79,7L66.57,3a.26.26,0,0,1,.28-.22h3.34a.27.27,0,0,1,.22.1.24.24,0,0,1,.06.23Z"/><polygon class="cls-5" points="80.98 7.5 79.65 0.85 75.31 0.85 73.63 9.25 76.15 9.25 77.48 2.6 78.81 9.25 83.14 9.25 84.82 0.85 82.3 0.85 80.98 7.5"/><polygon class="cls-5" points="85.31 9.25 87.83 9.25 89.52 0.85 87 0.85 85.31 9.25"/><path class="cls-5" d="M99.46,1.36A1.31,1.31,0,0,0,99,1a1.44,1.44,0,0,0-.62-.14H92.55a1.36,1.36,0,0,0-.89.31,1.4,1.4,0,0,0-.48.82L90,7.77a1.17,1.17,0,0,0,0,.56,1.4,1.4,0,0,0,.24.47,1.14,1.14,0,0,0,.42.33,1.25,1.25,0,0,0,.54.12h6a1.39,1.39,0,0,0,.9-.31,1.31,1.31,0,0,0,.48-.82l.34-1.67H96.39l-.13.62a.25.25,0,0,1-.28.22H93a.24.24,0,0,1-.21-.1A.24.24,0,0,1,92.71,7L93.49,3a.26.26,0,0,1,.27-.22h3.07a.27.27,0,0,1,.22.1.24.24,0,0,1,.06.23L97,3.65h2.52l.23-1.13a1.48,1.48,0,0,0,0-.63A1.66,1.66,0,0,0,99.46,1.36Z"/><polygon class="cls-5" points="107.19 7.29 105.7 7.29 107.11 6.88 105.93 0.85 103.27 0.85 104.8 9.25 109 9.25 113.35 0.85 110.41 0.85 107.19 7.29"/><polygon class="cls-5" points="113.41 9.25 115.93 9.25 117.61 0.85 115.09 0.85 113.41 9.25"/><path class="cls-5" d="M129.15,1.3a1.2,1.2,0,0,0-.41-.33,1.25,1.25,0,0,0-.54-.12h-8.43l-1.68,8.4h2.66l.47-2.38h6.13a1.36,1.36,0,0,0,.89-.31,1.32,1.32,0,0,0,.49-.81l.68-3.42a1.17,1.17,0,0,0,0-.56A1.63,1.63,0,0,0,129.15,1.3Zm-2.74,3.39a.26.26,0,0,1-.26.22h-4.54l.42-2.1h4.42a.27.27,0,0,1,.22.1.31.31,0,0,1,.06.23Z"/><polygon class="cls-5" points="139.05 2.81 139.43 0.85 131.6 0.85 129.92 9.25 137.75 9.25 138.15 7.29 132.84 7.29 133.09 6.04 137.56 6.04 137.96 4.07 133.47 4.07 133.72 2.81 139.05 2.81"/></g></g></svg>