<svg xmlns="http://www.w3.org/2000/svg" viewBox="0 0 154.24 26.7"><defs><style>.cls-1{fill:#d9d9d9;}.cls-2{fill:#bbb;}.cls-3{fill:#fff;}.cls-10,.cls-4,.cls-8,.cls-9{font-size:12px;font-family:RaceSportRegular, Race Sport Free;}.cls-5{letter-spacing:0.03em;}.cls-6{letter-spacing:0.03em;}.cls-7{letter-spacing:-0.03em;}.cls-8,.cls-9{fill:none;stroke-linecap:round;stroke-linejoin:round;}.cls-8{stroke:#e94e1b;stroke-width:2px;}.cls-9{stroke:#fff;}.cls-10{fill:#1d1d1b;}</style></defs><title>Asset 3vipe3</title><g id="Layer_2" data-name="Layer 2"><g id="Layer_1-2" data-name="Layer 1"><path class="cls-1" d="M118,7.92a5.18,5.18,0,0,1,1.79-6.34c1.46-.95,3.84-.81,4.48.8A4,4,0,0,1,129.13.16a6.43,6.43,0,0,1,3.94,4.1,4.29,4.29,0,0,1,3.48-2.9,9.36,9.36,0,0,1,4.69.63,9.34,9.34,0,0,1,4.16,2.53,4.29,4.29,0,0,1,.77,4.59,2.77,2.77,0,0,1,2.66.5,5.31,5.31,0,0,1,1.56,2.33,5.07,5.07,0,0,1-.11,4.36,4.15,4.15,0,0,1-3.72,1.79,7.19,7.19,0,0,1-4-1.59c-.81,1.51-2.85,1.89-4.54,1.58a8.92,8.92,0,0,1-7-6.7,3.2,3.2,0,0,1-4.24-1.68,3.26,3.26,0,0,1-5.65.52c0,.89-1,1.42-1.93,1.36s-1.74-.48-2.63-.46c-1.55,0-2.32,1.31-2.79,2.57C112.83,11.31,115.82,8.31,118,7.92Z"/><path class="cls-2" d="M150.82,14.49a3.33,3.33,0,0,1-.25.5,4.17,4.17,0,0,1-3.73,1.79,7.26,7.26,0,0,1-4-1.6c-.81,1.51-2.84,1.89-4.53,1.59a8.93,8.93,0,0,1-7-6.7,3.19,3.19,0,0,1-4.23-1.68,3.27,3.27,0,0,1-5.66.52c0,.89-1,1.42-1.93,1.36s-1.73-.48-2.62-.46c-1.55,0-2.32,1.31-2.8,2.57a2.61,2.61,0,0,1-.2-1,2.91,2.91,0,0,0-.08,2.33c.47-1.26,1.24-2.54,2.79-2.57.89,0,1.74.4,2.63.46s2-.47,1.93-1.36a3.26,3.26,0,0,0,5.65-.52,3.2,3.2,0,0,0,4.24,1.68,8.92,8.92,0,0,0,7,6.7c1.69.31,3.73-.07,4.54-1.58a7.19,7.19,0,0,0,4,1.59,4.15,4.15,0,0,0,3.72-1.79A3.74,3.74,0,0,0,150.82,14.49Z"/><path class="cls-3" d="M126.45,1.28a2.24,2.24,0,0,0-1.16,1.36,1.57,1.57,0,0,0,0,1.15.88.88,0,0,0,1,.48,2.13,2.13,0,0,0,.69-.55,1.58,1.58,0,0,1,1.53-.4c.21.06.39.18.6.25a.71.71,0,0,0,.62,0,.76.76,0,0,0,.13-.91A3,3,0,0,0,126.45,1.28Z"/><path class="cls-3" d="M136.93,3.4a3.68,3.68,0,0,0-1.85.94,2.09,2.09,0,0,0-.61,1.93A1.49,1.49,0,0,0,136,7.42c.66-.08,1.13-.64,1.69-1a2.7,2.7,0,0,1,2.38-.17c.58.24,1.23.69,1.78.37,1.16-.67-.39-2.24-1-2.71A5.24,5.24,0,0,0,136.93,3.4Z"/><path class="cls-3" d="M146,11.11a1.44,1.44,0,0,0,.45,1.33,1.82,1.82,0,0,0,1.24.72c1,0,1.4-1.29.85-2S146.32,10.09,146,11.11Z"/><text class="cls-4" transform="translate(1.74 21.23) scale(1.1 1)">E<tspan class="cls-5" x="9.7" y="0">l</tspan><tspan x="19" y="0">e</tspan><tspan class="cls-6" x="29" y="0">c</tspan><tspan class="cls-7" x="39.58" y="0">t</tspan><tspan x="48.6" y="0">ronic </tspan><tspan class="cls-7" x="100.41" y="0">V</tspan><tspan x="110.55" y="0">ipe</tspan></text><text class="cls-8" transform="translate(1.74 21.23) scale(1.1 1)">E<tspan class="cls-5" x="9.7" y="0">l</tspan><tspan x="19" y="0">e</tspan><tspan class="cls-6" x="29" y="0">c</tspan><tspan class="cls-7" x="39.58" y="0">t</tspan><tspan x="48.6" y="0">ronic </tspan><tspan class="cls-7" x="100.41" y="0">V</tspan><tspan x="110.55" y="0">ipe</tspan></text><text class="cls-9" transform="translate(1.74 21.23) scale(1.1 1)">E<tspan class="cls-5" x="9.7" y="0">l</tspan><tspan x="19" y="0">e</tspan><tspan class="cls-6" x="29" y="0">c</tspan><tspan class="cls-7" x="39.58" y="0">t</tspan><tspan x="48.6" y="0">ronic </tspan><tspan class="cls-7" x="100.41" y="0">V</tspan><tspan x="110.55" y="0">ipe</tspan></text><text class="cls-10" transform="translate(1.74 21.23) scale(1.1 1)">E<tspan class="cls-5" x="9.7" y="0">l</tspan><tspan x="19" y="0">e</tspan><tspan class="cls-6" x="29" y="0">c</tspan><tspan class="cls-7" x="39.58" y="0">t</tspan><tspan x="48.6" y="0">ronic </tspan><tspan class="cls-7" x="100.41" y="0">V</tspan><tspan x="110.55" y="0">ipe</tspan></text></g></g></svg>