<svg xmlns="http://www.w3.org/2000/svg" xmlns:xlink="http://www.w3.org/1999/xlink" viewBox="0 0 87.16 18.07"><defs><style>.cls-1,.cls-5{font-size:12px;font-family:CocosignumCorsivoItalico-Bold, Cocosignum Corsivo Italico;font-weight:700;}.cls-1{fill:#40b4e8;}.cls-2{letter-spacing:-0.06em;}.cls-3{letter-spacing:0em;}.cls-4,.cls-5{fill:none;stroke-linecap:round;stroke-linejoin:round;}.cls-4{stroke-width:3px;stroke:url(#Orange_Yellow);}.cls-5{stroke:#fff;}.cls-6{fill:url(#linear-gradient);}</style><linearGradient id="Orange_Yellow" x1="1.5" y1="8.01" x2="85.66" y2="8.01" gradientUnits="userSpaceOnUse"><stop offset="0" stop-color="#ffef26"/><stop offset="0.02" stop-color="#ffea21"/><stop offset="0.1" stop-color="#fed70f"/><stop offset="0.19" stop-color="#fdcc04"/><stop offset="0.28" stop-color="#fdc800"/><stop offset="0.67" stop-color="#f18f34"/><stop offset="0.89" stop-color="#e95f32"/><stop offset="1" stop-color="#e3312d"/></linearGradient><linearGradient id="linear-gradient" x1="43.66" y1="-4.47" x2="43.49" y2="15.78" xlink:href="#Orange_Yellow"/></defs><title>Asset 6vipe6</title><g id="Layer_2" data-name="Layer 2"><g id="Layer_1-2" data-name="Layer 1"><text class="cls-1" transform="translate(0.52 10.96)">Electronic<tspan class="cls-2" x="57.92" y="0">V</tspan><tspan class="cls-3" x="66.04" y="0">ipe</tspan></text><path class="cls-4" d="M1.5,2.3c0-.17.08-.25.23-.25H7.66c.16,0,.24.08.24.26v1a.24.24,0,0,1-.25.25H3.18v3H6.7c.16,0,.23.07.23.22v1A.21.21,0,0,1,6.71,8H3.18v1.4H7.8A.21.21,0,0,1,8,9.65v.92c0,.26,0,.39-.24.39H1.73a.2.2,0,0,1-.23-.22Z"/><path class="cls-4" d="M9,2.34a.26.26,0,0,1,.28-.28h1a.29.29,0,0,1,.29.28V9l1.91-1.65a.3.3,0,0,1,.2-.09.28.28,0,0,1,.2.1l.57.64a.27.27,0,0,1,.07.2.26.26,0,0,1-.09.21l-2.9,2.47c-.08.1-.38.09-.45.09H9.31A.26.26,0,0,1,9,10.67Z"/><path class="cls-4" d="M16.11,9.48a4.69,4.69,0,0,0,.81-.54l1.9-1.63A.28.28,0,0,1,19,7.25a.22.22,0,0,1,.17.09l.64.73a.24.24,0,0,1,.06.14.26.26,0,0,1-.1.19l-2.05,1.76a3.94,3.94,0,0,1-2.44.9,3.18,3.18,0,0,1-2.18-.85A2.94,2.94,0,0,1,12.15,8,3,3,0,0,1,13,5.86a3.09,3.09,0,0,1,2.23-.92,3,3,0,0,1,1.21.28,2.63,2.63,0,0,1,1,.81,1.49,1.49,0,0,1,.24.49,1.12,1.12,0,0,1,0,.2A.36.36,0,0,1,17.6,7L14.38,9.46a1.35,1.35,0,0,0,.87.24A1.93,1.93,0,0,0,16.11,9.48Zm-.06-2.91a1.29,1.29,0,0,0-.79-.26,1.6,1.6,0,0,0-1.09.45,1.47,1.47,0,0,0-.5,1.08,1.31,1.31,0,0,0,.05.49Z"/><path class="cls-4" d="M22.37,9.38a3.25,3.25,0,0,0,.72-.46L25,7.33a.3.3,0,0,1,.4,0l.55.63a.34.34,0,0,1,.07.19.28.28,0,0,1-.11.22l-2,1.71a3.65,3.65,0,0,1-2.35,1,3.14,3.14,0,0,1-2.2-.86A2.92,2.92,0,0,1,18.44,8a3.08,3.08,0,0,1,.9-2.18A3.12,3.12,0,0,1,21.51,5a3.19,3.19,0,0,1,1.78.58.46.46,0,0,1,.19.17.21.21,0,0,1,0,.12.41.41,0,0,1,0,.12L23,6.78a.21.21,0,0,1-.19.12.29.29,0,0,1-.2-.07,1.79,1.79,0,0,0-1.08-.35,1.45,1.45,0,0,0-1.08.45A1.61,1.61,0,0,0,20,8a1.55,1.55,0,0,0,.43,1.11,1.48,1.48,0,0,0,1.06.43A2.23,2.23,0,0,0,22.37,9.38Z"/><path class="cls-4" d="M24.89,4.32V2.71a.28.28,0,0,1,.26-.28l1.05-.16c.17,0,.28.12.28.3V4.32h.91a.27.27,0,0,1,.31.31v.66a.29.29,0,0,1-.31.33h-.93V9l1.92-1.64a.37.37,0,0,1,.2-.08.34.34,0,0,1,.21.1l.56.64a.28.28,0,0,1,.08.2.26.26,0,0,1-.09.21l-2.88,2.46-.09.05a.39.39,0,0,1-.2.05h-1a.26.26,0,0,1-.3-.29v-5h-.55c-.22,0-.32-.09-.32-.31V4.62c0-.22.1-.3.32-.3Z"/><path class="cls-4" d="M31.34,6.62a1.93,1.93,0,0,0-1,.43,1.22,1.22,0,0,0-.45,1v2.64c0,.21-.12.31-.34.31h-.92a.28.28,0,0,1-.32-.31V5.37a.29.29,0,0,1,.32-.3h.69c.19,0,.29.12.32.31l.05.43a2.91,2.91,0,0,1,2-.74h.76a.28.28,0,0,1,.28.27V7.19l1.67-1a.44.44,0,0,1,.2-.07.26.26,0,0,1,.23.15l.36.66a.32.32,0,0,1,0,.16.23.23,0,0,1-.11.22L32.68,8.74a.52.52,0,0,1-.32.1h-.75a.24.24,0,0,1-.27-.27Z"/><path class="cls-4" d="M34.8,5.85a3.1,3.1,0,0,1,5.26,1.72L41.91,6.1A.48.48,0,0,1,42.16,6a.16.16,0,0,1,.15.07l.57.78a.24.24,0,0,1,0,.15.28.28,0,0,1-.11.21L39.67,9.58a3.48,3.48,0,0,1-1,1.08A3,3,0,0,1,37,11.1a3.11,3.11,0,0,1-2.2-.9A3,3,0,0,1,33.89,8,3.09,3.09,0,0,1,34.8,5.85Zm1.12,3.31a1.52,1.52,0,0,0,2.18,0,1.66,1.66,0,0,0,0-2.25A1.51,1.51,0,0,0,37,6.45a1.46,1.46,0,0,0-1.09.46A1.71,1.71,0,0,0,35.48,8,1.68,1.68,0,0,0,35.92,9.16Z"/><path class="cls-4" d="M46.14,7.41l-3,3.43a.33.33,0,0,1-.27.12h-1a.26.26,0,0,1-.29-.29V5.35a.27.27,0,0,1,.28-.28h1a.29.29,0,0,1,.31.28V8.62L46,5.34s.16-.27.39-.27h1a.3.3,0,0,1,.3.28V9l1.84-1.59a.41.41,0,0,1,.27-.12.29.29,0,0,1,.22.12l.5.55a.4.4,0,0,1,.12.27.27.27,0,0,1-.11.23l-2.74,2.31a.57.57,0,0,1-.39.21h-1a.26.26,0,0,1-.28-.29Z"/><path class="cls-4" d="M49.67,2.66a.93.93,0,0,1,.65-.27.91.91,0,0,1,.92.92.91.91,0,0,1-.92.92A.93.93,0,0,1,49.67,4a1,1,0,0,1-.27-.65A.88.88,0,0,1,49.67,2.66Zm-.12,2.69a.27.27,0,0,1,.28-.28h1a.3.3,0,0,1,.3.28V9l1.91-1.64a.36.36,0,0,1,.2-.09.25.25,0,0,1,.17.08l.08.09.25.25A2.82,2.82,0,0,1,54,8a.3.3,0,0,1,.05.17.26.26,0,0,1-.09.21l-2.76,2.34c-.17.15-.25.21-.39.21h-1a.26.26,0,0,1-.28-.29Z"/><path class="cls-4" d="M56.61,9.38a3,3,0,0,0,.72-.46l1.9-1.59a.3.3,0,0,1,.4,0l.55.63a.34.34,0,0,1,.07.19.3.3,0,0,1-.1.22l-2,1.71a3.7,3.7,0,0,1-2.36,1,3.14,3.14,0,0,1-2.2-.86A3,3,0,0,1,52.68,8,3.07,3.07,0,0,1,55.76,5a3.24,3.24,0,0,1,1.78.58.5.5,0,0,1,.18.17.16.16,0,0,1,0,.12.24.24,0,0,1,0,.12l-.49.84A.21.21,0,0,1,57,6.9a.31.31,0,0,1-.2-.07,1.79,1.79,0,0,0-1.08-.35,1.45,1.45,0,0,0-1.08.45A1.61,1.61,0,0,0,54.26,8a1.55,1.55,0,0,0,.43,1.11,1.49,1.49,0,0,0,1.07.43A2.22,2.22,0,0,0,56.61,9.38Z"/><path class="cls-4" d="M58.67,2.33a.79.79,0,0,1,0-.13c0-.1.08-.15.23-.15h1.29a.28.28,0,0,1,.22.07.91.91,0,0,1,.12.26l2.3,6.17,2.34-6.3a.3.3,0,0,1,.3-.2H66.7c.14,0,.24.06.24.17a.29.29,0,0,1,0,.09l-3.3,8.28a.47.47,0,0,1-.19.29A.75.75,0,0,1,63,11h-.7c-.15,0-.21-.05-.24-.14Z"/><path class="cls-4" d="M67.36,2.66A.93.93,0,0,1,68,2.39a.91.91,0,0,1,.92.92.91.91,0,0,1-.92.92.92.92,0,0,1-.92-.92A.88.88,0,0,1,67.36,2.66Zm-.12,2.69a.27.27,0,0,1,.28-.28h1a.3.3,0,0,1,.3.28V9l1.92-1.64a.33.33,0,0,1,.2-.09.25.25,0,0,1,.17.08l.08.09.24.25a3.1,3.1,0,0,1,.3.36.41.41,0,0,1,0,.17.26.26,0,0,1-.09.21l-2.76,2.34c-.17.15-.25.21-.39.21h-1a.26.26,0,0,1-.28-.29Z"/><path class="cls-4" d="M71.73,5.07a.25.25,0,0,1,.26.18c0,.06,0,.12,0,.18s0,.12,0,.22v0A2.31,2.31,0,0,1,73.85,5a2.87,2.87,0,0,1,2,.75,3.21,3.21,0,0,1,1,1.87L78.61,6.1A.48.48,0,0,1,78.86,6a.16.16,0,0,1,.15.07l.57.78a.25.25,0,0,1,0,.15.29.29,0,0,1-.12.21L76.37,9.58a3.45,3.45,0,0,1-1.07,1.05,2.65,2.65,0,0,1-1.42.4,2.38,2.38,0,0,1-1.65-.59v3.24a.27.27,0,0,1-.29.29H71a.29.29,0,0,1-.3-.29V5.35a.24.24,0,0,1,.26-.28Zm.86,4.07a1.56,1.56,0,0,0,1.12.48,1.51,1.51,0,0,0,1.09-.46A1.63,1.63,0,0,0,75.24,8a1.69,1.69,0,0,0-.44-1.16,1.45,1.45,0,0,0-1.09-.51,1.57,1.57,0,0,0-1.12.5A1.72,1.72,0,0,0,72.12,8,1.59,1.59,0,0,0,72.59,9.14Z"/><path class="cls-4" d="M81.9,9.48a4.71,4.71,0,0,0,.82-.54l1.89-1.63a.32.32,0,0,1,.18-.06.23.23,0,0,1,.18.09l.63.73a.19.19,0,0,1,.06.14.23.23,0,0,1-.1.19l-2,1.76a4,4,0,0,1-2.44.9,3.23,3.23,0,0,1-2.19-.85A3,3,0,0,1,78,8a3.06,3.06,0,0,1,3.1-3.06,3,3,0,0,1,1.21.28,2.66,2.66,0,0,1,1,.81,1.49,1.49,0,0,1,.23.49.62.62,0,0,1,0,.2.33.33,0,0,1-.14.31L80.17,9.46A1.37,1.37,0,0,0,81,9.7,1.93,1.93,0,0,0,81.9,9.48Zm-.06-2.91a1.27,1.27,0,0,0-.79-.26A1.64,1.64,0,0,0,80,6.76a1.47,1.47,0,0,0-.5,1.08,1.31,1.31,0,0,0,.05.49Z"/><text class="cls-5" transform="translate(0.52 10.96)">Electronic<tspan class="cls-2" x="57.92" y="0">V</tspan><tspan class="cls-3" x="66.04" y="0">ipe</tspan></text><path class="cls-6" d="M1.5,2.3c0-.17.08-.25.23-.25H7.66c.16,0,.24.08.24.26v1a.24.24,0,0,1-.25.25H3.18v3H6.7c.16,0,.23.07.23.22v1A.21.21,0,0,1,6.71,8H3.18v1.4H7.8A.21.21,0,0,1,8,9.65v.92c0,.26,0,.39-.24.39H1.73a.2.2,0,0,1-.23-.22Z"/><path class="cls-6" d="M9,2.34a.26.26,0,0,1,.28-.28h1a.29.29,0,0,1,.29.28V9l1.91-1.65a.3.3,0,0,1,.2-.09.28.28,0,0,1,.2.1l.57.64a.27.27,0,0,1,.07.2.26.26,0,0,1-.09.21l-2.9,2.47c-.08.1-.38.09-.45.09H9.31A.26.26,0,0,1,9,10.67Z"/><path class="cls-6" d="M16.11,9.48a4.69,4.69,0,0,0,.81-.54l1.9-1.63A.28.28,0,0,1,19,7.25a.22.22,0,0,1,.17.09l.64.73a.24.24,0,0,1,.06.14.26.26,0,0,1-.1.19l-2.05,1.76a3.94,3.94,0,0,1-2.44.9,3.18,3.18,0,0,1-2.18-.85A2.94,2.94,0,0,1,12.15,8,3,3,0,0,1,13,5.86a3.09,3.09,0,0,1,2.23-.92,3,3,0,0,1,1.21.28,2.63,2.63,0,0,1,1,.81,1.49,1.49,0,0,1,.24.49,1.12,1.12,0,0,1,0,.2A.36.36,0,0,1,17.6,7L14.38,9.46a1.35,1.35,0,0,0,.87.24A1.93,1.93,0,0,0,16.11,9.48Zm-.06-2.91a1.29,1.29,0,0,0-.79-.26,1.6,1.6,0,0,0-1.09.45,1.47,1.47,0,0,0-.5,1.08,1.31,1.31,0,0,0,.05.49Z"/><path class="cls-6" d="M22.37,9.38a3.25,3.25,0,0,0,.72-.46L25,7.33a.3.3,0,0,1,.4,0l.55.63a.34.34,0,0,1,.07.19.28.28,0,0,1-.11.22l-2,1.71a3.65,3.65,0,0,1-2.35,1,3.14,3.14,0,0,1-2.2-.86A2.92,2.92,0,0,1,18.44,8a3.08,3.08,0,0,1,.9-2.18A3.12,3.12,0,0,1,21.51,5a3.19,3.19,0,0,1,1.78.58.46.46,0,0,1,.19.17.21.21,0,0,1,0,.12.41.41,0,0,1,0,.12L23,6.78a.21.21,0,0,1-.19.12.29.29,0,0,1-.2-.07,1.79,1.79,0,0,0-1.08-.35,1.45,1.45,0,0,0-1.08.45A1.61,1.61,0,0,0,20,8a1.55,1.55,0,0,0,.43,1.11,1.48,1.48,0,0,0,1.06.43A2.23,2.23,0,0,0,22.37,9.38Z"/><path class="cls-6" d="M24.89,4.32V2.71a.28.28,0,0,1,.26-.28l1.05-.16c.17,0,.28.12.28.3V4.32h.91a.27.27,0,0,1,.31.31v.66a.29.29,0,0,1-.31.33h-.93V9l1.92-1.64a.37.37,0,0,1,.2-.08.34.34,0,0,1,.21.1l.56.64a.28.28,0,0,1,.08.2.26.26,0,0,1-.09.21l-2.88,2.46-.09.05a.39.39,0,0,1-.2.05h-1a.26.26,0,0,1-.3-.29v-5h-.55c-.22,0-.32-.09-.32-.31V4.62c0-.22.1-.3.32-.3Z"/><path class="cls-6" d="M31.34,6.62a1.93,1.93,0,0,0-1,.43,1.22,1.22,0,0,0-.45,1v2.64c0,.21-.12.31-.34.31h-.92a.28.28,0,0,1-.32-.31V5.37a.29.29,0,0,1,.32-.3h.69c.19,0,.29.12.32.31l.05.43a2.91,2.91,0,0,1,2-.74h.76a.28.28,0,0,1,.28.27V7.19l1.67-1a.44.44,0,0,1,.2-.07.26.26,0,0,1,.23.15l.36.66a.32.32,0,0,1,0,.16.23.23,0,0,1-.11.22L32.68,8.74a.52.52,0,0,1-.32.1h-.75a.24.24,0,0,1-.27-.27Z"/><path class="cls-6" d="M34.8,5.85a3.1,3.1,0,0,1,5.26,1.72L41.91,6.1A.48.48,0,0,1,42.16,6a.16.16,0,0,1,.15.07l.57.78a.24.24,0,0,1,0,.15.28.28,0,0,1-.11.21L39.67,9.58a3.48,3.48,0,0,1-1,1.08A3,3,0,0,1,37,11.1a3.11,3.11,0,0,1-2.2-.9A3,3,0,0,1,33.89,8,3.09,3.09,0,0,1,34.8,5.85Zm1.12,3.31a1.52,1.52,0,0,0,2.18,0,1.66,1.66,0,0,0,0-2.25A1.51,1.51,0,0,0,37,6.45a1.46,1.46,0,0,0-1.09.46A1.71,1.71,0,0,0,35.48,8,1.68,1.68,0,0,0,35.92,9.16Z"/><path class="cls-6" d="M46.14,7.41l-3,3.43a.33.33,0,0,1-.27.12h-1a.26.26,0,0,1-.29-.29V5.35a.27.27,0,0,1,.28-.28h1a.29.29,0,0,1,.31.28V8.62L46,5.34s.16-.27.39-.27h1a.3.3,0,0,1,.3.28V9l1.84-1.59a.41.41,0,0,1,.27-.12.29.29,0,0,1,.22.12l.5.55a.4.4,0,0,1,.12.27.27.27,0,0,1-.11.23l-2.74,2.31a.57.57,0,0,1-.39.21h-1a.26.26,0,0,1-.28-.29Z"/><path class="cls-6" d="M49.67,2.66a.93.93,0,0,1,.65-.27.91.91,0,0,1,.92.92.91.91,0,0,1-.92.92A.93.93,0,0,1,49.67,4a1,1,0,0,1-.27-.65A.88.88,0,0,1,49.67,2.66Zm-.12,2.69a.27.27,0,0,1,.28-.28h1a.3.3,0,0,1,.3.28V9l1.91-1.64a.36.36,0,0,1,.2-.09.25.25,0,0,1,.17.08l.08.09.25.25A2.82,2.82,0,0,1,54,8a.3.3,0,0,1,.05.17.26.26,0,0,1-.09.21l-2.76,2.34c-.17.15-.25.21-.39.21h-1a.26.26,0,0,1-.28-.29Z"/><path class="cls-6" d="M56.61,9.38a3,3,0,0,0,.72-.46l1.9-1.59a.3.3,0,0,1,.4,0l.55.63a.34.34,0,0,1,.07.19.3.3,0,0,1-.1.22l-2,1.71a3.7,3.7,0,0,1-2.36,1,3.14,3.14,0,0,1-2.2-.86A3,3,0,0,1,52.68,8,3.07,3.07,0,0,1,55.76,5a3.24,3.24,0,0,1,1.78.58.5.5,0,0,1,.18.17.16.16,0,0,1,0,.12.24.24,0,0,1,0,.12l-.49.84A.21.21,0,0,1,57,6.9a.31.31,0,0,1-.2-.07,1.79,1.79,0,0,0-1.08-.35,1.45,1.45,0,0,0-1.08.45A1.61,1.61,0,0,0,54.26,8a1.55,1.55,0,0,0,.43,1.11,1.49,1.49,0,0,0,1.07.43A2.22,2.22,0,0,0,56.61,9.38Z"/><path class="cls-6" d="M58.67,2.33a.79.79,0,0,1,0-.13c0-.1.08-.15.23-.15h1.29a.28.28,0,0,1,.22.07.91.91,0,0,1,.12.26l2.3,6.17,2.34-6.3a.3.3,0,0,1,.3-.2H66.7c.14,0,.24.06.24.17a.29.29,0,0,1,0,.09l-3.3,8.28a.47.47,0,0,1-.19.29A.75.75,0,0,1,63,11h-.7c-.15,0-.21-.05-.24-.14Z"/><path class="cls-6" d="M67.36,2.66A.93.93,0,0,1,68,2.39a.91.91,0,0,1,.92.92.91.91,0,0,1-.92.92.92.92,0,0,1-.92-.92A.88.88,0,0,1,67.36,2.66Zm-.12,2.69a.27.27,0,0,1,.28-.28h1a.3.3,0,0,1,.3.28V9l1.92-1.64a.33.33,0,0,1,.2-.09.25.25,0,0,1,.17.08l.08.09.24.25a3.1,3.1,0,0,1,.3.36.41.41,0,0,1,0,.17.26.26,0,0,1-.09.21l-2.76,2.34c-.17.15-.25.21-.39.21h-1a.26.26,0,0,1-.28-.29Z"/><path class="cls-6" d="M71.73,5.07a.25.25,0,0,1,.26.18c0,.06,0,.12,0,.18s0,.12,0,.22v0A2.31,2.31,0,0,1,73.85,5a2.87,2.87,0,0,1,2,.75,3.21,3.21,0,0,1,1,1.87L78.61,6.1A.48.48,0,0,1,78.86,6a.16.16,0,0,1,.15.07l.57.78a.25.25,0,0,1,0,.15.29.29,0,0,1-.12.21L76.37,9.58a3.45,3.45,0,0,1-1.07,1.05,2.65,2.65,0,0,1-1.42.4,2.38,2.38,0,0,1-1.65-.59v3.24a.27.27,0,0,1-.29.29H71a.29.29,0,0,1-.3-.29V5.35a.24.24,0,0,1,.26-.28Zm.86,4.07a1.56,1.56,0,0,0,1.12.48,1.51,1.51,0,0,0,1.09-.46A1.63,1.63,0,0,0,75.24,8a1.69,1.69,0,0,0-.44-1.16,1.45,1.45,0,0,0-1.09-.51,1.57,1.57,0,0,0-1.12.5A1.72,1.72,0,0,0,72.12,8,1.59,1.59,0,0,0,72.59,9.14Z"/><path class="cls-6" d="M81.9,9.48a4.71,4.71,0,0,0,.82-.54l1.89-1.63a.32.32,0,0,1,.18-.06.23.23,0,0,1,.18.09l.63.73a.19.19,0,0,1,.06.14.23.23,0,0,1-.1.19l-2,1.76a4,4,0,0,1-2.44.9,3.23,3.23,0,0,1-2.19-.85A3,3,0,0,1,78,8a3.06,3.06,0,0,1,3.1-3.06,3,3,0,0,1,1.21.28,2.66,2.66,0,0,1,1,.81,1.49,1.49,0,0,1,.23.49.62.62,0,0,1,0,.2.33.33,0,0,1-.14.31L80.17,9.46A1.37,1.37,0,0,0,81,9.7,1.93,1.93,0,0,0,81.9,9.48Zm-.06-2.91a1.27,1.27,0,0,0-.79-.26A1.64,1.64,0,0,0,80,6.76a1.47,1.47,0,0,0-.5,1.08,1.31,1.31,0,0,0,.05.49Z"/></g></g></svg>