<svg xmlns="http://www.w3.org/2000/svg" viewBox="0 0 133.88 10.4"><defs><style>.cls-1,.cls-2{fill:none;stroke-linecap:round;stroke-linejoin:round;}.cls-1{stroke:#e73c15;stroke-width:2px;}.cls-2{stroke:#fff;}.cls-3{fill:#ec681c;}</style></defs><title>Asset 4vipe4</title><g id="Layer_2" data-name="Layer 2"><g id="Layer_1-2" data-name="Layer 1"><path class="cls-1" d="M1,7.72,2.37,1h7.85l-.4,2H3l1.4.42-.18.91H8.73L8.37,6.11H3.87l-.19,1a.24.24,0,0,0,.06.23.25.25,0,0,0,.21.1h5l-.38,2H2.41a1.41,1.41,0,0,1-.62-.14,1.23,1.23,0,0,1-.47-.37,1.52,1.52,0,0,1-.27-.54A1.22,1.22,0,0,1,1,7.72Z"/><path class="cls-2" d="M1,7.72,2.37,1h7.85l-.4,2H3l1.4.42-.18.91H8.73L8.37,6.11H3.87l-.19,1a.24.24,0,0,0,.06.23.25.25,0,0,0,.21.1h5l-.38,2H2.41a1.41,1.41,0,0,1-.62-.14,1.23,1.23,0,0,1-.47-.37,1.52,1.52,0,0,1-.27-.54A1.22,1.22,0,0,1,1,7.72Z"/><path class="cls-3" d="M1,7.72,2.37,1h7.85l-.4,2H3l1.4.42-.18.91H8.73L8.37,6.11H3.87l-.19,1a.24.24,0,0,0,.06.23.25.25,0,0,0,.21.1h5l-.38,2H2.41a1.41,1.41,0,0,1-.62-.14,1.23,1.23,0,0,1-.47-.37,1.52,1.52,0,0,1-.27-.54A1.22,1.22,0,0,1,1,7.72Z"/><path class="cls-1" d="M13.55,7.44h5.21l-.39,2h-8L12,1h2.8Z"/><path class="cls-2" d="M13.55,7.44h5.21l-.39,2h-8L12,1h2.8Z"/><path class="cls-3" d="M13.55,7.44h5.21l-.39,2h-8L12,1h2.8Z"/><path class="cls-1" d="M22.24,7.44h5.32l-.4,2H19.33L21,1h7.84l-.38,2H23.13l-.25,1.26h4.48l-.39,2H22.49Z"/><path class="cls-2" d="M22.24,7.44h5.32l-.4,2H19.33L21,1h7.84l-.38,2H23.13l-.25,1.26h4.48l-.39,2H22.49Z"/><path class="cls-3" d="M22.24,7.44h5.32l-.4,2H19.33L21,1h7.84l-.38,2H23.13l-.25,1.26h4.48l-.39,2H22.49Z"/><path class="cls-1" d="M32,7.44h3a.24.24,0,0,0,.28-.22l.13-.62h2.52l-.33,1.67A1.39,1.39,0,0,1,36.2,9.4h-6a1.25,1.25,0,0,1-.54-.12A1.14,1.14,0,0,1,29.27,9,1.4,1.4,0,0,1,29,8.48a1.17,1.17,0,0,1,0-.56l1.16-5.79a1.4,1.4,0,0,1,.48-.82A1.38,1.38,0,0,1,31.55,1h5.82a1.41,1.41,0,0,1,.62.14,1.31,1.31,0,0,1,.47.37,1.66,1.66,0,0,1,.27.53,1.48,1.48,0,0,1,0,.63L38.52,3.8H36l.11-.51a.24.24,0,0,0-.06-.23.25.25,0,0,0-.21-.1H32.76a.26.26,0,0,0-.27.22l-.78,3.93a.24.24,0,0,0,.06.23A.25.25,0,0,0,32,7.44Z"/><path class="cls-2" d="M32,7.44h3a.24.24,0,0,0,.28-.22l.13-.62h2.52l-.33,1.67A1.39,1.39,0,0,1,36.2,9.4h-6a1.25,1.25,0,0,1-.54-.12A1.14,1.14,0,0,1,29.27,9,1.4,1.4,0,0,1,29,8.48a1.17,1.17,0,0,1,0-.56l1.16-5.79a1.4,1.4,0,0,1,.48-.82A1.38,1.38,0,0,1,31.55,1h5.82a1.41,1.41,0,0,1,.62.14,1.31,1.31,0,0,1,.47.37,1.66,1.66,0,0,1,.27.53,1.48,1.48,0,0,1,0,.63L38.52,3.8H36l.11-.51a.24.24,0,0,0-.06-.23.25.25,0,0,0-.21-.1H32.76a.26.26,0,0,0-.27.22l-.78,3.93a.24.24,0,0,0,.06.23A.25.25,0,0,0,32,7.44Z"/><path class="cls-3" d="M32,7.44h3a.24.24,0,0,0,.28-.22l.13-.62h2.52l-.33,1.67A1.39,1.39,0,0,1,36.2,9.4h-6a1.25,1.25,0,0,1-.54-.12A1.14,1.14,0,0,1,29.27,9,1.4,1.4,0,0,1,29,8.48a1.17,1.17,0,0,1,0-.56l1.16-5.79a1.4,1.4,0,0,1,.48-.82A1.38,1.38,0,0,1,31.55,1h5.82a1.41,1.41,0,0,1,.62.14,1.31,1.31,0,0,1,.47.37,1.66,1.66,0,0,1,.27.53,1.48,1.48,0,0,1,0,.63L38.52,3.8H36l.11-.51a.24.24,0,0,0-.06-.23.25.25,0,0,0-.21-.1H32.76a.26.26,0,0,0-.27.22l-.78,3.93a.24.24,0,0,0,.06.23A.25.25,0,0,0,32,7.44Z"/><path class="cls-1" d="M42.2,3h-3l.4-2H48.2l-.4,2H45L43.71,9.4h-2.8Z"/><path class="cls-2" d="M42.2,3h-3l.4-2H48.2l-.4,2H45L43.71,9.4h-2.8Z"/><path class="cls-3" d="M42.2,3h-3l.4-2H48.2l-.4,2H45L43.71,9.4h-2.8Z"/><path class="cls-1" d="M54,7H50.92L50.44,9.4H47.92L49.6,1h8.09a1.44,1.44,0,0,1,.62.14,1.28,1.28,0,0,1,.46.37A1.34,1.34,0,0,1,59,2a1.33,1.33,0,0,1,0,.63L58.42,5.9a1.31,1.31,0,0,1-.48.81,1.36,1.36,0,0,1-.89.31h-.54L57.58,9.4H55.06Zm-2.69-2h4.54a.28.28,0,0,0,.28-.22l.3-1.55a.31.31,0,0,0-.06-.23.24.24,0,0,0-.21-.1H51.72Z"/><path class="cls-2" d="M54,7H50.92L50.44,9.4H47.92L49.6,1h8.09a1.44,1.44,0,0,1,.62.14,1.28,1.28,0,0,1,.46.37A1.34,1.34,0,0,1,59,2a1.33,1.33,0,0,1,0,.63L58.42,5.9a1.31,1.31,0,0,1-.48.81,1.36,1.36,0,0,1-.89.31h-.54L57.58,9.4H55.06Zm-2.69-2h4.54a.28.28,0,0,0,.28-.22l.3-1.55a.31.31,0,0,0-.06-.23.24.24,0,0,0-.21-.1H51.72Z"/><path class="cls-3" d="M54,7H50.92L50.44,9.4H47.92L49.6,1h8.09a1.44,1.44,0,0,1,.62.14,1.28,1.28,0,0,1,.46.37A1.34,1.34,0,0,1,59,2a1.33,1.33,0,0,1,0,.63L58.42,5.9a1.31,1.31,0,0,1-.48.81,1.36,1.36,0,0,1-.89.31h-.54L57.58,9.4H55.06Zm-2.69-2h4.54a.28.28,0,0,0,.28-.22l.3-1.55a.31.31,0,0,0-.06-.23.24.24,0,0,0-.21-.1H51.72Z"/><path class="cls-1" d="M68.13,8.27A1.39,1.39,0,0,1,66.75,9.4h-6.1A1.44,1.44,0,0,1,60,9.26a1.28,1.28,0,0,1-.46-.37,1.38,1.38,0,0,1-.27-.54,1.33,1.33,0,0,1,0-.63L60.4,2.13a1.31,1.31,0,0,1,.48-.82A1.36,1.36,0,0,1,61.77,1h6.11a1.39,1.39,0,0,1,.6.14,1.35,1.35,0,0,1,.48.37,1.48,1.48,0,0,1,.27.53,1.22,1.22,0,0,1,0,.63ZM62.2,7.44h3.35a.25.25,0,0,0,.27-.22l.78-3.93a.24.24,0,0,0-.06-.23.24.24,0,0,0-.21-.1H63a.27.27,0,0,0-.28.22l-.78,3.93a.31.31,0,0,0,.06.23A.27.27,0,0,0,62.2,7.44Z"/><path class="cls-2" d="M68.13,8.27A1.39,1.39,0,0,1,66.75,9.4h-6.1A1.44,1.44,0,0,1,60,9.26a1.28,1.28,0,0,1-.46-.37,1.38,1.38,0,0,1-.27-.54,1.33,1.33,0,0,1,0-.63L60.4,2.13a1.31,1.31,0,0,1,.48-.82A1.36,1.36,0,0,1,61.77,1h6.11a1.39,1.39,0,0,1,.6.14,1.35,1.35,0,0,1,.48.37,1.48,1.48,0,0,1,.27.53,1.22,1.22,0,0,1,0,.63ZM62.2,7.44h3.35a.25.25,0,0,0,.27-.22l.78-3.93a.24.24,0,0,0-.06-.23.24.24,0,0,0-.21-.1H63a.27.27,0,0,0-.28.22l-.78,3.93a.31.31,0,0,0,.06.23A.27.27,0,0,0,62.2,7.44Z"/><path class="cls-3" d="M68.13,8.27A1.39,1.39,0,0,1,66.75,9.4h-6.1A1.44,1.44,0,0,1,60,9.26a1.28,1.28,0,0,1-.46-.37,1.38,1.38,0,0,1-.27-.54,1.33,1.33,0,0,1,0-.63L60.4,2.13a1.31,1.31,0,0,1,.48-.82A1.36,1.36,0,0,1,61.77,1h6.11a1.39,1.39,0,0,1,.6.14,1.35,1.35,0,0,1,.48.37,1.48,1.48,0,0,1,.27.53,1.22,1.22,0,0,1,0,.63ZM62.2,7.44h3.35a.25.25,0,0,0,.27-.22l.78-3.93a.24.24,0,0,0-.06-.23.24.24,0,0,0-.21-.1H63a.27.27,0,0,0-.28.22l-.78,3.93a.31.31,0,0,0,.06.23A.27.27,0,0,0,62.2,7.44Z"/><path class="cls-1" d="M73.28,2.75,71.94,9.4H69.42L71.1,1h4.35l1.33,6.65L78.1,1h2.52L78.94,9.4H74.61Z"/><path class="cls-2" d="M73.28,2.75,71.94,9.4H69.42L71.1,1h4.35l1.33,6.65L78.1,1h2.52L78.94,9.4H74.61Z"/><path class="cls-3" d="M73.28,2.75,71.94,9.4H69.42L71.1,1h4.35l1.33,6.65L78.1,1h2.52L78.94,9.4H74.61Z"/><path class="cls-1" d="M80.78,9.4,82.46,1H85L83.3,9.4Z"/><path class="cls-2" d="M80.78,9.4,82.46,1H85L83.3,9.4Z"/><path class="cls-3" d="M80.78,9.4,82.46,1H85L83.3,9.4Z"/><path class="cls-1" d="M88.11,7.44h3a.24.24,0,0,0,.27-.22l.14-.62H94L93.7,8.27a1.32,1.32,0,0,1-.49.82,1.36,1.36,0,0,1-.89.31h-6a1.19,1.19,0,0,1-.54-.12A1.14,1.14,0,0,1,85.4,9a1.11,1.11,0,0,1-.24-.47,1.17,1.17,0,0,1,0-.56l1.17-5.79a1.31,1.31,0,0,1,.48-.82A1.34,1.34,0,0,1,87.68,1H93.5a1.37,1.37,0,0,1,.61.14,1.23,1.23,0,0,1,.47.37,1.34,1.34,0,0,1,.27.53,1.33,1.33,0,0,1,0,.63L94.65,3.8H92.13l.11-.51a.31.31,0,0,0-.06-.23A.27.27,0,0,0,92,3H88.89a.26.26,0,0,0-.28.22l-.78,3.93a.31.31,0,0,0,.06.23A.27.27,0,0,0,88.11,7.44Z"/><path class="cls-2" d="M88.11,7.44h3a.24.24,0,0,0,.27-.22l.14-.62H94L93.7,8.27a1.32,1.32,0,0,1-.49.82,1.36,1.36,0,0,1-.89.31h-6a1.19,1.19,0,0,1-.54-.12A1.14,1.14,0,0,1,85.4,9a1.11,1.11,0,0,1-.24-.47,1.17,1.17,0,0,1,0-.56l1.17-5.79a1.31,1.31,0,0,1,.48-.82A1.34,1.34,0,0,1,87.68,1H93.5a1.37,1.37,0,0,1,.61.14,1.23,1.23,0,0,1,.47.37,1.34,1.34,0,0,1,.27.53,1.33,1.33,0,0,1,0,.63L94.65,3.8H92.13l.11-.51a.31.31,0,0,0-.06-.23A.27.27,0,0,0,92,3H88.89a.26.26,0,0,0-.28.22l-.78,3.93a.31.31,0,0,0,.06.23A.27.27,0,0,0,88.11,7.44Z"/><path class="cls-3" d="M88.11,7.44h3a.24.24,0,0,0,.27-.22l.14-.62H94L93.7,8.27a1.32,1.32,0,0,1-.49.82,1.36,1.36,0,0,1-.89.31h-6a1.19,1.19,0,0,1-.54-.12A1.14,1.14,0,0,1,85.4,9a1.11,1.11,0,0,1-.24-.47,1.17,1.17,0,0,1,0-.56l1.17-5.79a1.31,1.31,0,0,1,.48-.82A1.34,1.34,0,0,1,87.68,1H93.5a1.37,1.37,0,0,1,.61.14,1.23,1.23,0,0,1,.47.37,1.34,1.34,0,0,1,.27.53,1.33,1.33,0,0,1,0,.63L94.65,3.8H92.13l.11-.51a.31.31,0,0,0-.06-.23A.27.27,0,0,0,92,3H88.89a.26.26,0,0,0-.28.22l-.78,3.93a.31.31,0,0,0,.06.23A.27.27,0,0,0,88.11,7.44Z"/><path class="cls-1" d="M100.16,7.44h1.48L104.86,1h2.94l-4.34,8.4h-4.2L97.72,1h2.66l1.18,6Z"/><path class="cls-2" d="M100.16,7.44h1.48L104.86,1h2.94l-4.34,8.4h-4.2L97.72,1h2.66l1.18,6Z"/><path class="cls-3" d="M100.16,7.44h1.48L104.86,1h2.94l-4.34,8.4h-4.2L97.72,1h2.66l1.18,6Z"/><path class="cls-1" d="M107.52,9.4,109.2,1h2.52L110,9.4Z"/><path class="cls-2" d="M107.52,9.4,109.2,1h2.52L110,9.4Z"/><path class="cls-3" d="M107.52,9.4,109.2,1h2.52L110,9.4Z"/><path class="cls-1" d="M111.87,9.4,113.55,1H122a1.22,1.22,0,0,1,.54.12,1.2,1.2,0,0,1,.41.33,1.42,1.42,0,0,1,.25.47,1.17,1.17,0,0,1,0,.56l-.69,3.42a1.31,1.31,0,0,1-.48.81,1.39,1.39,0,0,1-.9.31H115l-.47,2.38Zm8.06-4.34a.27.27,0,0,0,.27-.22l.31-1.55a.31.31,0,0,0-.06-.23.27.27,0,0,0-.22-.1h-4.41l-.42,2.1Z"/><path class="cls-2" d="M111.87,9.4,113.55,1H122a1.22,1.22,0,0,1,.54.12,1.2,1.2,0,0,1,.41.33,1.42,1.42,0,0,1,.25.47,1.17,1.17,0,0,1,0,.56l-.69,3.42a1.31,1.31,0,0,1-.48.81,1.39,1.39,0,0,1-.9.31H115l-.47,2.38Zm8.06-4.34a.27.27,0,0,0,.27-.22l.31-1.55a.31.31,0,0,0-.06-.23.27.27,0,0,0-.22-.1h-4.41l-.42,2.1Z"/><path class="cls-3" d="M111.87,9.4,113.55,1H122a1.22,1.22,0,0,1,.54.12,1.2,1.2,0,0,1,.41.33,1.42,1.42,0,0,1,.25.47,1.17,1.17,0,0,1,0,.56l-.69,3.42a1.31,1.31,0,0,1-.48.81,1.39,1.39,0,0,1-.9.31H115l-.47,2.38Zm8.06-4.34a.27.27,0,0,0,.27-.22l.31-1.55a.31.31,0,0,0-.06-.23.27.27,0,0,0-.22-.1h-4.41l-.42,2.1Z"/><path class="cls-1" d="M126.28,7.44h5.32l-.4,2h-7.84L125,1h7.84l-.38,2h-5.33l-.25,1.26h4.49l-.4,2h-4.48Z"/><path class="cls-2" d="M126.28,7.44h5.32l-.4,2h-7.84L125,1h7.84l-.38,2h-5.33l-.25,1.26h4.49l-.4,2h-4.48Z"/><path class="cls-3" d="M126.28,7.44h5.32l-.4,2h-7.84L125,1h7.84l-.38,2h-5.33l-.25,1.26h4.49l-.4,2h-4.48Z"/></g></g></svg>