<svg xmlns:xlink="http://www.w3.org/1999/xlink" viewBox="0 0 40 40" fill="none" xmlns="http://www.w3.org/2000/svg" width="40"  height="40" >
<path d="M33.3333 0H6.66667C2.985 0 0 2.985 0 6.66667V33.3333C0 37.015 2.985 40 6.66667 40H33.3333C37.015 40 40 37.015 40 33.3333V6.66667C40 2.985 37.015 0 33.3333 0ZM28.6025 29.1667C27.5867 25.9967 25.055 23.5442 21.7067 23.2108V29.1667H21.19C12.08 29.1667 6.88333 22.91 6.66667 12.5H11.2308C11.3808 20.1408 14.745 23.3775 17.41 24.045V12.5H21.7075V19.09C24.3392 18.8067 27.1042 15.8033 28.0367 12.5H32.3342C31.6183 16.5708 28.62 19.5733 26.4875 20.8083C28.6192 21.8092 32.0342 24.4283 33.3333 29.1667H28.6025Z" fill="#FFFFFF"></path>
</svg>